<svg width="85" height="107" viewBox="0 0 85 107" fill="none" xmlns="http://www.w3.org/2000/svg">
<g clip-path="url(#clip0_713_930)">
<path d="M58.198 94.6604C57.2852 93.3754 56.0496 92.4351 54.4963 92.0833C53.1417 91.7764 51.7489 91.8287 50.372 91.8394L32.9617 91.9743C31.4706 91.9859 30.0409 93.2847 30.1102 94.8412C30.179 96.3845 31.3634 97.7204 32.9617 97.708C38.0617 97.6685 43.1617 97.6289 48.2617 97.5894C49.464 97.5801 50.6671 97.5583 51.8695 97.5622C52.1395 97.5631 52.4084 97.5774 52.6782 97.5805C52.7435 97.5813 52.7907 97.5807 52.824 97.5793C52.8324 97.5818 52.8394 97.5842 52.8503 97.5872C52.991 97.626 53.1354 97.6528 53.2769 97.6897C53.2273 97.6912 53.3687 97.7798 53.4397 97.8099C53.4495 97.8292 53.4703 97.8635 53.505 97.9165C53.5535 98.0079 53.697 98.2854 53.7029 98.2767C53.9185 98.8247 54.0963 99.387 54.2352 99.9596C54.5666 101.222 54.6394 101.486 54.6871 102.671C54.7474 104.167 55.9555 105.609 57.5385 105.538C59.0318 105.471 60.4546 104.276 60.39 102.671C60.281 99.9664 59.8089 96.9284 58.198 94.6604Z" fill="#E6E6E6"/>
<path d="M33.9851 101.13C33.6581 99.1373 33.3373 97.1436 33.004 95.1524C32.6657 93.1324 31.9749 91.2825 30.4113 89.9567C29.9935 89.6025 29.5603 89.2718 29.1253 88.9421C28.9723 88.8262 28.8196 88.7102 28.6685 88.5917C28.6594 88.5846 28.6537 88.5802 28.6458 88.574C28.6292 88.5597 28.6093 88.5426 28.5825 88.5198C27.9308 87.9653 27.3011 87.3861 26.7013 86.7705C26.1687 86.2237 25.6593 85.6536 25.1732 85.0602C25.0517 84.912 24.9318 84.7625 24.8134 84.6116C24.7931 84.5857 24.6834 84.4432 24.6112 84.3502C24.544 84.2572 24.4212 84.0892 24.4006 84.0598C24.2623 83.8633 24.1265 83.6649 23.9932 83.4646C23.085 82.0966 22.2986 80.6507 21.643 79.1437C21.578 78.9942 21.5146 78.8439 21.4526 78.6927C21.436 78.6465 21.4145 78.5873 21.386 78.5083C21.2539 78.1431 21.1221 77.7783 21.0013 77.4088C20.7447 76.6239 20.524 75.8274 20.3394 75.0193C20.2481 74.6202 20.1659 74.2192 20.0929 73.8161C20.0552 73.6088 20.02 73.4011 19.9872 73.193C19.9818 73.1584 19.9497 72.9338 19.9309 72.807C19.9169 72.6795 19.891 72.4537 19.8875 72.4188C19.8666 72.209 19.8481 71.999 19.8319 71.7888C19.7955 71.3157 19.7708 70.8419 19.758 70.3673C19.736 69.5238 19.7511 68.6804 19.803 67.837C19.8326 67.3631 19.8747 66.8905 19.9266 66.4188C19.9297 66.3898 19.9322 66.3667 19.9344 66.3459C19.9376 66.3249 19.9412 66.301 19.9456 66.2712C19.9839 66.0105 20.0243 65.7501 20.0695 65.4906C20.2405 64.5052 20.463 63.5295 20.7359 62.5676C20.8651 62.1127 21.0055 61.6614 21.157 61.2138C21.2245 61.0152 21.2942 60.8173 21.366 60.6201C21.3613 60.6328 21.5767 60.0797 21.5795 60.0612C22.4341 58.0313 23.8318 56.1807 23.8337 53.8748C23.835 52.3136 22.5213 50.8181 20.9822 50.8902C20.2149 50.9192 19.4888 51.2466 18.9568 51.8034C18.4249 52.3602 18.1288 53.1028 18.1308 53.8748C18.1308 53.9099 18.1306 53.9398 18.1305 53.9688C18.1162 54.0174 18.1042 54.058 18.0934 54.0938C17.9267 54.4579 17.7226 54.8039 17.5397 55.1589C17.0388 56.1307 16.6112 57.1343 16.2051 58.1527C15.5403 59.8111 15.0314 61.5284 14.6851 63.2822C13.9324 67.1249 13.8739 71.0724 14.5126 74.9359C15.6182 81.7111 19.2641 88.1966 24.3328 92.5561C24.7727 92.9344 25.2233 93.3 25.6781 93.6582C25.8664 93.8064 26.0562 93.9518 26.2469 94.0964C26.3371 94.1647 26.7105 94.4608 26.5462 94.3174C26.8995 94.6205 27.0483 94.7731 27.139 94.9963C27.1522 95.0479 27.1701 95.1178 27.1944 95.2133C27.2583 95.4651 27.3191 95.7163 27.3695 95.9717C27.8107 98.2027 28.1174 100.471 28.4859 102.717C28.7392 104.259 30.6284 105.264 31.9936 104.801C33.5825 104.263 34.2565 102.783 33.9851 101.13Z" fill="#E6E6E6"/>
<path d="M58.4864 106.916C57.2888 106.919 56.139 106.445 55.289 105.597C54.4391 104.749 53.9584 103.596 53.9526 102.392V99.1218C50.5471 99.5051 38.8856 99.4163 35.5429 98.8763V102.261C35.534 103.464 35.0523 104.615 34.203 105.462C33.3538 106.31 32.2057 106.786 31.0091 106.786C29.8125 106.786 28.6644 106.31 27.8151 105.462C26.9658 104.615 26.4842 103.464 26.4752 102.261V95.6153C21.9478 93.0866 18.1735 89.389 15.542 84.9041C12.9104 80.4193 11.5168 75.3097 11.5051 70.1026C11.5051 61.1742 15.5298 52.8453 22.5471 47.2515C27.1098 43.6022 32.6533 41.4074 38.4658 40.9493C39.2548 40.8871 40.0485 40.8556 40.8252 40.8556C43.5612 40.8556 55.9056 41.2805 59.0028 42.1764L66.0651 35.1308C66.1689 35.0258 66.3015 34.9543 66.4459 34.9254C66.5903 34.8964 66.7401 34.9114 66.876 34.9684C67.0129 35.0231 67.1302 35.1183 67.2124 35.2413C67.2946 35.3643 67.3379 35.5094 67.3366 35.6576V36.7778L68.7117 35.4085C68.8154 35.3034 68.9478 35.2318 69.0922 35.2028C69.2365 35.1738 69.3862 35.1888 69.522 35.2458C69.6591 35.3005 69.7765 35.3957 69.8588 35.5187C69.941 35.6418 69.9844 35.787 69.9831 35.9353V48.4534C73.5269 51.6654 76.2278 55.7067 77.8466 60.2192C79.4654 64.7316 79.9521 69.5758 79.2634 74.3226C78.5748 79.0693 76.7321 83.572 73.8988 87.4316C71.0654 91.2911 67.3288 94.3884 63.0202 96.4489V102.392C63.0143 103.596 62.5337 104.749 61.6837 105.597C60.8338 106.445 59.6839 106.919 58.4864 106.916ZM54.309 98.7154V102.392C54.318 103.5 54.7621 104.56 55.5445 105.34C56.3269 106.12 57.3843 106.558 58.4864 106.558C59.5884 106.558 60.6458 106.12 61.4282 105.34C62.2107 104.56 62.6547 103.5 62.6637 102.392V96.2225L62.7655 96.174C67.6001 93.8675 71.7042 90.259 74.6223 85.7492C78.3408 79.9943 79.8872 73.0912 78.9817 66.2892C78.0762 59.4873 74.7787 53.236 69.6859 48.6667L69.6267 48.6133V35.9353C69.6279 35.8582 69.6057 35.7827 69.563 35.7187C69.5202 35.6548 69.459 35.6056 69.3875 35.5777C69.3165 35.5472 69.238 35.5389 69.1623 35.5541C69.0866 35.5692 69.0171 35.607 68.9631 35.6625L66.9801 37.6371V35.6576C66.9814 35.5806 66.9592 35.505 66.9164 35.4411C66.8737 35.3771 66.8124 35.3279 66.741 35.3C66.6698 35.2695 66.5912 35.2614 66.5153 35.2766C66.4395 35.2919 66.37 35.3298 66.3159 35.3854L59.1024 42.5818L58.9999 42.5495C56.1206 41.6435 43.582 41.2139 40.8252 41.2139C40.0578 41.2139 39.2734 41.2451 38.4938 41.3066C32.752 41.7591 27.2758 43.9272 22.7686 47.5323C15.837 53.0577 11.8615 61.2843 11.8615 70.1026C11.8734 75.2636 13.2595 80.3273 15.8758 84.7676C18.4922 89.208 22.2434 92.863 26.7397 95.3531L26.8317 95.4043V102.261C26.8409 103.369 27.285 104.428 28.0674 105.209C28.8499 105.989 29.9072 106.426 31.0091 106.426C32.111 106.426 33.1683 105.989 33.9507 105.209C34.7331 104.428 35.1773 103.369 35.1865 102.261V98.4474L35.3976 98.4873C38.4016 99.0555 51.0507 99.1451 54.1076 98.7419L54.309 98.7154Z" fill="url(#paint0_linear_713_930)"/>
<path d="M34.3257 21.3431L14.5901 27.3061C13.9624 27.4965 13.4355 27.9297 13.1252 28.5104C12.815 29.0911 12.7467 29.772 12.9354 30.4033C13.1241 31.0346 13.5543 31.5648 14.1316 31.8774C14.7088 32.19 15.3859 32.2594 16.0141 32.0704L33.2849 26.851L33.6467 26.7417C33.7199 24.8672 34.2257 23.0356 35.1241 21.3915C35.0114 21.3405 34.8909 21.309 34.7677 21.2983C34.6189 21.2838 34.4687 21.299 34.3257 21.3431Z" fill="url(#paint1_linear_713_930)"/>
<path d="M15.6728 33.3418C15.4108 33.3411 15.1557 33.2577 14.9434 33.1034C14.7311 32.949 14.5725 32.7315 14.4898 32.4815L13.2557 28.7374C13.2042 28.5811 13.1838 28.416 13.1957 28.2518C13.2076 28.0875 13.2515 27.9272 13.3251 27.78C13.3986 27.6328 13.5003 27.5016 13.6242 27.3939C13.7482 27.2862 13.8921 27.2041 14.0476 27.1523L30.1104 21.8003C30.2659 21.7485 30.43 21.7279 30.5934 21.7399C30.7568 21.7518 30.9162 21.796 31.0627 21.8699C31.2091 21.9438 31.3395 22.046 31.4467 22.1706C31.5538 22.2952 31.6355 22.4398 31.687 22.5962L32.9211 26.3402C33.0238 26.6482 33.0032 26.9842 32.8637 27.2772C32.7242 27.5701 32.4768 27.797 32.1738 27.9097C32.159 27.9153 32.144 27.9206 32.1289 27.9255L16.0665 33.2774C15.9395 33.3199 15.8066 33.3417 15.6728 33.3418Z" fill="#2F2E41"/>
<path d="M45.7546 14.6938C42.5127 14.6951 39.3985 15.9646 37.0711 18.2336C34.7437 20.5027 33.3858 23.5932 33.2848 26.851C33.2813 26.9782 33.2795 27.1072 33.2795 27.2362C33.2795 29.7169 34.0112 32.1418 35.382 34.2044C36.7527 36.267 38.7011 37.8746 40.9806 38.8239C43.2601 39.7732 45.7685 40.0216 48.1884 39.5376C50.6084 39.0537 52.8312 37.8591 54.5759 36.105C56.3205 34.351 57.5087 32.1161 57.99 29.6831C58.4714 27.2501 58.2243 24.7283 57.2801 22.4365C56.3359 20.1446 54.737 18.1858 52.6854 16.8076C50.6339 15.4294 48.222 14.6938 45.7546 14.6938ZM45.7546 39.4203C42.5416 39.4169 39.4611 38.1321 37.1891 35.8479C34.9172 33.5637 33.6393 30.4666 33.636 27.2362C33.636 27.0696 33.6395 26.9048 33.6467 26.7417C33.7432 24.355 34.5353 22.0495 35.9247 20.1119C37.314 18.1742 39.2392 16.6899 41.4609 15.8435C43.6825 14.9971 46.1027 14.8259 48.4203 15.3513C50.738 15.8766 52.8509 17.0753 54.4963 18.7983C56.1418 20.5213 57.2472 22.6926 57.6751 25.0422C58.103 27.3918 57.8345 29.816 56.9031 32.0134C55.9716 34.2108 54.4182 36.0845 52.4361 37.4014C50.4539 38.7183 48.1305 39.4203 45.7546 39.4203Z" fill="url(#paint2_linear_713_930)"/>
<path d="M56.2694 27.2362C56.2694 30.0399 55.1616 32.7288 53.1898 34.7113C51.2179 36.6939 48.5434 37.8076 45.7547 37.8076C42.966 37.8076 40.2916 36.6939 38.3197 34.7113C36.3478 32.7288 35.24 30.0399 35.24 27.2362C35.24 26.9011 35.256 26.5714 35.2863 26.2453C35.5397 23.5395 36.8199 21.0357 38.8611 19.2538C40.9023 17.4719 43.5477 16.5489 46.248 16.6764C48.9483 16.804 51.496 17.9722 53.3621 19.9386C55.2283 21.9049 56.2694 24.5183 56.2694 27.2362Z" fill="url(#paint3_linear_713_930)"/>
<path d="M48.8859 27.9387C48.6311 27.6018 48.2958 27.3349 47.9111 27.1629C47.4367 26.9618 46.9468 26.8 46.4462 26.6791V23.8015C47.2156 23.9181 47.9373 24.2489 48.5295 24.7565L49.1105 23.5112C48.7764 23.2119 48.3928 22.9736 47.977 22.8071C47.5162 22.6195 47.0325 22.4947 46.5388 22.4362V20.9777H45.1933V22.4505C44.6738 22.5092 44.1726 22.6784 43.7231 22.9468C43.317 23.1885 42.9752 23.5253 42.7268 23.9287C42.4898 24.3223 42.3669 24.7748 42.3722 25.2349C42.349 25.7335 42.4927 26.2256 42.7803 26.6325C43.045 26.9848 43.3946 27.2635 43.7961 27.4424C44.2781 27.6493 44.7765 27.8153 45.286 27.9387V30.6962C44.378 30.6274 43.5128 30.2803 42.807 29.7018L42.2261 30.9489C42.6207 31.2769 43.0695 31.5328 43.552 31.705C44.0807 31.8952 44.6331 32.011 45.1934 32.049V33.495H46.5389V32.0221C47.2862 31.94 47.9871 31.6169 48.5366 31.1012C48.7787 30.8678 48.9699 30.5865 49.0981 30.2749C49.2263 29.9634 49.2888 29.6285 49.2816 29.2915C49.304 28.8087 49.1646 28.3324 48.8859 27.9387ZM45.286 26.3745C44.9583 26.2745 44.6535 26.1101 44.3896 25.8907C44.285 25.7971 44.2023 25.6815 44.1475 25.552C44.0926 25.4225 44.067 25.2824 44.0724 25.1417C44.0626 24.8226 44.1793 24.5126 44.3967 24.2799C44.6377 24.0357 44.9487 23.8734 45.286 23.8158V26.3745ZM47.291 30.1874C47.0636 30.4218 46.7675 30.5769 46.4462 30.6299V28.2576C46.7534 28.3405 47.0407 28.4849 47.291 28.6823C47.3858 28.7637 47.4612 28.8656 47.5115 28.9804C47.5618 29.0952 47.5857 29.2199 47.5814 29.3452C47.5938 29.6527 47.49 29.9536 47.291 30.1874Z" fill="black"/>
<path d="M16.2456 48.5161C15.9701 48.5157 15.7024 48.4238 15.4841 48.2548C15.2658 48.0859 15.1091 47.8492 15.0382 47.5816L14.3663 45.0247C14.2822 44.7033 14.3283 44.3615 14.4945 44.0743C14.6607 43.7871 14.9335 43.5778 15.2529 43.4925L36.45 37.861C36.7699 37.7771 37.1098 37.824 37.3954 37.9914C37.681 38.1588 37.889 38.4331 37.9739 38.7543L38.5431 40.9205L38.4365 40.9288C33.0001 41.3538 27.7985 43.3355 23.4472 46.6394L23.4163 46.6544L16.5621 48.4748C16.4588 48.5022 16.3524 48.5161 16.2456 48.5161Z" fill="#2F2E41"/>
<path d="M12.7349 61.1455C10.2484 60.7762 7.87027 59.8722 5.76271 58.4951C4.71859 57.8134 3.75199 57.0186 2.88026 56.1249C2.01986 55.2426 1.19675 54.2398 0.77058 53.0647C0.36055 51.9776 0.381683 50.7736 0.829612 49.7017C1.27143 48.6363 2.11541 47.7906 3.17649 47.3499C4.24393 46.9219 5.53361 46.8761 6.57247 47.3448C7.06751 47.563 7.49588 47.9097 7.81362 48.3493C7.96132 48.552 8.07068 48.7802 8.13624 49.0227C8.19709 49.2424 8.20262 49.4738 8.15235 49.6962C8.09143 49.9182 7.984 50.1246 7.83727 50.3014C7.69053 50.4783 7.50788 50.6216 7.30157 50.7216C6.8475 50.9558 6.35551 51.1067 5.84873 51.1671C5.33901 51.237 4.6068 51.3006 4.19703 50.8892C4.11268 50.8078 4.04633 50.7095 4.00231 50.6006C3.97151 50.5172 3.96097 50.4276 3.97159 50.3393C3.96561 50.3783 3.99631 50.2547 3.99456 50.2596C3.98808 50.2779 3.96002 50.3224 3.99991 50.254C4.01237 50.2315 4.02625 50.2097 4.04145 50.189C4.02791 50.2066 3.99816 50.236 4.05128 50.1855C4.09518 50.1373 4.15161 50.1022 4.21422 50.0844C4.23889 50.0772 4.26391 50.0714 4.28865 50.0647C4.35152 50.0474 4.22598 50.0656 4.2903 50.0635C4.31512 50.0627 4.34024 50.0633 4.36498 50.0622C4.42806 50.0594 4.30273 50.0449 4.3632 50.0602C4.38667 50.0661 4.40993 50.0719 4.43306 50.0793C4.48333 50.0952 4.39746 50.0422 4.43152 50.0818C4.47144 50.1283 4.38961 50.0366 4.43498 50.0816C4.45756 50.1039 4.47884 50.1275 4.49872 50.1523C4.57741 50.2304 4.68354 50.2742 4.79412 50.2742C4.90469 50.2742 5.01082 50.2304 5.08951 50.1523C5.16552 50.0723 5.20794 49.9659 5.20794 49.8553C5.20794 49.7447 5.16552 49.6383 5.08951 49.5583C4.67758 49.0449 3.86391 49.1718 3.4472 49.6057C2.91576 50.1591 3.12621 51.0361 3.64316 51.5189C4.22836 52.0656 5.05719 52.1036 5.80997 52.0119C6.44615 51.9506 7.06611 51.7745 7.64009 51.4919C8.21041 51.2102 8.65646 50.7257 8.89188 50.1323C8.99817 49.8156 9.03634 49.4798 9.00389 49.1472C8.97143 48.8145 8.86908 48.4926 8.70361 48.2027C8.03899 46.9465 6.66277 46.3024 5.30248 46.1909C4.60213 46.1357 3.89785 46.2207 3.23041 46.441C2.56296 46.6613 1.94559 47.0125 1.41403 47.4743C0.389466 48.4016 -0.241439 49.6894 -0.348212 51.0713C-0.46695 52.504 0.085937 53.8953 0.892032 55.0516C1.73592 56.2263 2.74295 57.2734 3.88239 58.1609C6.10998 59.9489 8.72294 61.1878 11.5122 61.7786C11.8439 61.8475 12.1775 61.9065 12.5128 61.9555C12.6195 61.9815 12.732 61.9657 12.8275 61.9112C12.923 61.8567 12.9942 61.7676 13.0267 61.6622C13.0553 61.5548 13.0408 61.4404 12.9862 61.3437C12.9316 61.247 12.8413 61.1758 12.7349 61.1455Z" fill="url(#paint4_linear_713_930)"/>
<path d="M52.5457 42.8917C48.9026 42.84 45.2709 42.9329 41.6508 43.1705C40.4134 43.2518 39.3428 43.6915 39.3428 44.4305C39.3428 45.0484 40.4049 45.7723 41.6508 45.6905C45.2691 45.4529 48.9007 45.36 52.5457 45.4116C55.5172 45.4538 55.5155 42.9338 52.5457 42.8917Z" fill="#CCCCCC"/>
<path d="M47.1612 45.2868C46.7674 45.2868 37.5187 45.272 37.5187 43.9876C37.5187 42.7033 46.7674 42.6885 47.1612 42.6885C47.5549 42.6885 56.8037 42.7033 56.8037 43.9876C56.8037 45.272 47.5549 45.2868 47.1612 45.2868ZM37.8803 43.9876C38.1334 44.377 41.5331 44.9285 47.1612 44.9285C52.7892 44.9285 56.1889 44.377 56.442 43.9876C56.1889 43.5983 52.7892 43.0468 47.1612 43.0468C41.5331 43.0468 38.1334 43.5983 37.8803 43.9876Z" fill="url(#paint5_linear_713_930)"/>
<path d="M76.5051 79.0528C78.5525 78.9956 81.1005 78.9242 83.0636 77.4825C83.6481 77.0356 84.1284 76.4655 84.4707 75.8124C84.8131 75.1592 85.0092 74.4386 85.0454 73.7012C85.0855 72.5626 84.6763 71.5688 83.8933 70.9035C82.868 70.0325 81.3708 69.8282 79.7574 70.3049L81.429 58.0227L80.2019 57.8536L78.2367 72.293L79.2614 71.8202C80.4495 71.2723 82.0803 70.9935 83.0937 71.8545C83.3426 72.0796 83.5365 72.3594 83.6603 72.6721C83.7841 72.9848 83.8345 73.322 83.8076 73.6574C83.7776 74.2063 83.6303 74.7422 83.3759 75.2286C83.1214 75.7151 82.7657 76.1408 82.3329 76.4767C80.8053 77.5986 78.7742 77.7433 76.4706 77.8081L76.5051 79.0528Z" fill="url(#paint6_linear_713_930)"/>
<path d="M73.1121 59.0819H66.441V60.3272H73.1121V59.0819Z" fill="url(#paint7_linear_713_930)"/>
<path d="M19.2643 54.2436C18.9673 54.2427 18.6804 54.1354 18.455 53.9412C18.2295 53.7469 18.0802 53.4782 18.0339 53.1834L17.6267 50.5707C17.5758 50.2421 17.6567 49.9066 17.8515 49.6379C18.0464 49.3692 18.3393 49.1892 18.6661 49.1374L40.3249 45.7254C40.6517 45.6743 40.9853 45.7556 41.2526 45.9515C41.5198 46.1474 41.6989 46.4419 41.7504 46.7703L42.1576 49.3831C42.2085 49.7117 42.1276 50.0471 41.9328 50.3159C41.7379 50.5846 41.445 50.7646 41.1183 50.8164L19.4594 54.2283C19.3949 54.2385 19.3296 54.2436 19.2643 54.2436Z" fill="#2F2E41"/>
<path d="M10.3008 23.6253C15.3205 23.6253 19.3898 19.5341 19.3898 14.4873C19.3898 9.44047 15.3205 5.34924 10.3008 5.34924C5.28108 5.34924 1.21179 9.44047 1.21179 14.4873C1.21179 19.5341 5.28108 23.6253 10.3008 23.6253Z" fill="url(#paint8_linear_713_930)"/>
<path d="M15.4468 16.8517C15.7372 16.7495 16.0026 16.586 16.225 16.3722C16.3721 16.2197 16.4843 16.0367 16.5538 15.8361C16.6232 15.6354 16.6481 15.4219 16.6268 15.2106C16.6145 15.0599 16.5676 14.9142 16.49 14.7847C16.4123 14.6553 16.3059 14.5457 16.1791 14.4644C15.8502 14.2611 15.4156 14.2688 14.9767 14.4733L14.9261 10.9062L14.5697 10.9113L14.6292 15.1048L14.9005 14.9259C15.2151 14.7188 15.6672 14.5686 15.9924 14.7697C16.0728 14.823 16.14 14.8941 16.1886 14.9777C16.2372 15.0613 16.266 15.155 16.2727 15.2516C16.2877 15.4091 16.2688 15.5679 16.2172 15.7174C16.1657 15.8668 16.0827 16.0034 15.974 16.1177C15.5876 16.5031 15.0157 16.6323 14.363 16.7504L14.4262 17.103C14.7732 17.0501 15.1147 16.9659 15.4468 16.8517Z" fill="#2F2E41"/>
<path d="M18.5963 10.656L16.6982 10.9449L16.7516 11.2992L18.6496 11.0102L18.5963 10.656Z" fill="#2F2E41"/>
<path d="M12.6052 11.5679L10.7072 11.8569L10.7605 12.2112L12.6586 11.9222L12.6052 11.5679Z" fill="#2F2E41"/>
<path d="M16.3072 54.0838C15.9803 54.0831 15.6614 53.9823 15.3929 53.7949C15.1244 53.6075 14.919 53.3424 14.804 53.0347L8.53742 36.1618C7.77148 34.0924 7.85327 31.8021 8.76485 29.7933C9.67643 27.7845 11.3433 26.2213 13.3999 25.4466L18.4954 23.5337C18.6924 23.4592 18.9021 23.4247 19.1125 23.432C19.3229 23.4393 19.5297 23.4884 19.7212 23.5765C19.9121 23.6622 20.0841 23.7854 20.2272 23.9388C20.3703 24.0922 20.4815 24.2727 20.5544 24.4698L32.1627 46.5057C32.2381 46.7044 32.2736 46.9161 32.2673 47.1287C32.261 47.3413 32.2129 47.5505 32.1258 47.7443C32.0387 47.9381 31.9144 48.1127 31.76 48.258C31.6055 48.4033 31.424 48.5165 31.2259 48.591L16.8677 53.9813C16.6885 54.0489 16.4986 54.0836 16.3072 54.0838Z" fill="#2F2E41"/>
<path d="M16.9493 24.1141L28.4672 39.5996L20.6736 24.2767C20.6092 24.0979 20.5104 23.9336 20.3829 23.7932C20.2554 23.6528 20.1016 23.539 19.9303 23.4584C19.759 23.3778 19.5737 23.3318 19.3847 23.3233C19.1958 23.3147 19.007 23.3436 18.8292 23.4084L16.9493 24.1141Z" fill="#E6E6E6"/>
<path d="M35.1866 35.8744L14.6213 34.5426C14.2971 34.5216 13.9803 34.4366 13.6888 34.2925C13.3973 34.1484 13.1369 33.948 12.9224 33.7027C12.708 33.4574 12.5437 33.172 12.4389 32.8629C12.3342 32.5538 12.291 32.2269 12.3119 31.901C12.3328 31.5751 12.4173 31.2565 12.5606 30.9635C12.704 30.6704 12.9033 30.4086 13.1473 30.193C13.3913 29.9774 13.6751 29.8122 13.9826 29.7069C14.29 29.6015 14.6151 29.5581 14.9393 29.5791L35.5045 30.9109C35.6564 30.9207 35.8048 30.9605 35.9413 31.028C36.0778 31.0954 36.1997 31.1893 36.3002 31.3042C36.4006 31.419 36.4775 31.5527 36.5266 31.6974C36.5757 31.8422 36.5959 31.9953 36.5861 32.1479L36.4171 34.787C36.3973 35.0953 36.2566 35.383 36.0258 35.5869C35.795 35.7909 35.4931 35.8943 35.1866 35.8744Z" fill="url(#paint9_linear_713_930)"/>
<path d="M29.6913 36.7282C29.6641 36.7282 29.6369 36.7273 29.6096 36.7255L12.7225 35.6319C12.559 35.6214 12.3992 35.5785 12.2522 35.5058C12.1052 35.4332 11.9738 35.3321 11.8657 35.2084C11.7575 35.0847 11.6747 34.9408 11.6218 34.7848C11.569 34.6289 11.5472 34.4641 11.5578 34.2997L11.8465 29.792C11.8571 29.6276 11.8997 29.4669 11.972 29.3191C12.0443 29.1713 12.1448 29.0393 12.2679 28.9305C12.391 28.8218 12.5341 28.7385 12.6892 28.6854C12.8443 28.6323 13.0082 28.6104 13.1717 28.621L30.0587 29.7145C30.3888 29.7363 30.6967 29.8887 30.9151 30.1385C31.1334 30.3882 31.2443 30.7149 31.2235 31.0467L30.9347 35.5546C30.9188 35.7961 30.8339 36.0279 30.6902 36.2221C30.5465 36.4164 30.3501 36.5647 30.1245 36.6495C29.986 36.7016 29.8392 36.7283 29.6913 36.7282Z" fill="#2F2E41"/>
<path d="M10.1966 8.41065C11.3923 7.37674 13.0342 8.30164 14.4054 8.13973C15.7173 7.98483 16.7532 6.80172 17.0178 5.54483C17.3266 4.07844 16.5695 2.60934 15.4537 1.69507C14.2316 0.69373 12.6108 0.406268 11.0749 0.591524C9.31451 0.803849 7.70459 1.62884 6.26002 2.62671C4.86564 3.56007 3.58337 4.6525 2.43878 5.88221C1.41384 7.02028 0.545452 8.37683 0.268153 9.90827C0.0161562 11.3 0.208575 12.8423 1.02691 14.0213C1.46085 14.6256 2.04236 15.1073 2.71536 15.4198C3.41707 15.7663 4.1656 16.0139 4.84542 16.4056C5.87333 16.9978 6.87236 18.2258 6.55037 19.5037C6.48134 19.7829 6.34511 20.0407 6.15366 20.2545C5.92365 20.5112 5.50875 20.172 5.73937 19.9146C6.14442 19.4625 6.12847 18.8596 5.91261 18.3199C5.65592 17.7117 5.2014 17.2091 4.62349 16.8946C3.91187 16.4856 3.12622 16.2331 2.39687 15.8605C1.69875 15.5202 1.09277 15.0153 0.630491 14.3888C-0.242449 13.1691 -0.503564 11.5818 -0.305587 10.1134C-0.0913472 8.52442 0.7207 7.08048 1.73866 5.87045C2.84649 4.5536 4.20729 3.43892 5.59747 2.43753C7.08915 1.36304 8.73716 0.454624 10.5608 0.126065C12.1416 -0.158744 13.8551 0.0166027 15.2374 0.882717C16.5277 1.69118 17.5172 3.08189 17.6156 4.63588C17.6509 5.34294 17.4982 6.0467 17.1732 6.67472C16.8482 7.30274 16.3626 7.83235 15.7664 8.20904C15.1546 8.5771 14.4434 8.74277 13.733 8.68266C12.9735 8.63378 12.2133 8.39996 11.4489 8.46488C11.103 8.48599 10.7734 8.61988 10.5101 8.84626C10.2488 9.07215 9.93748 8.63469 10.1966 8.41065Z" fill="#2F2E41"/>
</g>
<defs>
<linearGradient id="paint0_linear_713_930" x1="45.5361" y1="34.911" x2="45.5361" y2="106.916" gradientUnits="userSpaceOnUse">
<stop offset="1" stop-color="#B0C1D8"/>
<stop offset="1" stop-color="#EDD1C7"/>
</linearGradient>
<linearGradient id="paint1_linear_713_930" x1="23.9774" y1="21.293" x2="23.9774" y2="32.1748" gradientUnits="userSpaceOnUse">
<stop offset="1" stop-color="#B0C1D8"/>
<stop offset="1" stop-color="#EDD1C7"/>
</linearGradient>
<linearGradient id="paint2_linear_713_930" x1="45.7546" y1="14.6938" x2="45.7546" y2="39.7786" gradientUnits="userSpaceOnUse">
<stop offset="1" stop-color="#B0C1D8"/>
<stop offset="1" stop-color="#EDD1C7"/>
</linearGradient>
<linearGradient id="paint3_linear_713_930" x1="45.7547" y1="16.6648" x2="45.7547" y2="37.8076" gradientUnits="userSpaceOnUse">
<stop stop-color="#B0C1D8"/>
<stop offset="1" stop-color="#EDD1C7"/>
</linearGradient>
<linearGradient id="paint4_linear_713_930" x1="6.33839" y1="46.1746" x2="6.33839" y2="61.9677" gradientUnits="userSpaceOnUse">
<stop offset="1" stop-color="#B0C1D8"/>
<stop offset="1" stop-color="#EDD1C7"/>
</linearGradient>
<linearGradient id="paint5_linear_713_930" x1="47.1612" y1="42.6885" x2="47.1612" y2="45.2868" gradientUnits="userSpaceOnUse">
<stop offset="1" stop-color="#B0C1D8"/>
<stop offset="1" stop-color="#EDD1C7"/>
</linearGradient>
<linearGradient id="paint6_linear_713_930" x1="80.7593" y1="57.8536" x2="80.7593" y2="79.0528" gradientUnits="userSpaceOnUse">
<stop offset="1" stop-color="#B0C1D8"/>
<stop offset="1" stop-color="#EDD1C7"/>
</linearGradient>
<linearGradient id="paint7_linear_713_930" x1="69.7765" y1="59.0819" x2="69.7765" y2="60.3272" gradientUnits="userSpaceOnUse">
<stop offset="1" stop-color="#B0C1D8"/>
<stop offset="1" stop-color="#EDD1C7"/>
</linearGradient>
<linearGradient id="paint8_linear_713_930" x1="10.3008" y1="5.34924" x2="26" y2="26" gradientUnits="userSpaceOnUse">
<stop stop-color="#B0C1D8"/>
<stop offset="1" stop-color="#EDD1C7"/>
</linearGradient>
<linearGradient id="paint9_linear_713_930" x1="24.4476" y1="29.574" x2="24.4476" y2="35.8768" gradientUnits="userSpaceOnUse">
<stop offset="1" stop-color="#B0C1D8"/>
<stop offset="1" stop-color="#EDD1C7"/>
</linearGradient>
<clipPath id="clip0_713_930">
<rect width="85" height="107" fill="white"/>
</clipPath>
</defs>
</svg>
