<svg width="93" height="69" viewBox="0 0 93 69" fill="none" xmlns="http://www.w3.org/2000/svg">
<g clip-path="url(#clip0_705_451)">
<path opacity="0.1" d="M1.00098 33.0812C2.4695 38.7897 5.57565 43.7244 10.4843 46.1165C20.6887 51.0878 43.7024 48.5239 60.8784 45.5808C69.7631 44.0586 77.5724 39.8578 83.2453 33.946L1.00098 33.0812Z" fill="url(#paint0_linear_705_451)"/>
<path opacity="0.1" d="M91.0707 6.21027H81.6466C81.1993 6.21027 80.8324 5.87692 80.8324 5.46959C80.8324 5.06226 81.1993 4.72807 81.6466 4.72807H83.2766C82.8285 4.72807 82.4624 4.39472 82.4624 3.98654C82.4624 3.57836 82.8285 3.24587 83.2766 3.24587H82.1133C81.6652 3.24587 81.2983 2.91252 81.2983 2.50435C81.2983 2.09617 81.6652 1.76367 82.1133 1.76367H87.032C85.9406 1.30192 84.6648 0.973677 83.1946 0.801051C69.7817 -0.766184 64.9931 0.270419 63.3039 1.33594C61.1985 2.68058 58.8596 3.6136 56.4102 4.08604C48.1351 5.63967 32.6593 7.50878 18.6326 3.49078C11.6611 1.48985 6.47944 4.86668 3.37415 10.5114H92.7075C92.5908 8.87108 92.2416 7.35572 91.6008 6.02999C91.449 6.14785 91.2624 6.2113 91.0707 6.21027Z" fill="url(#paint1_linear_705_451)"/>
<path opacity="0.1" d="M0.202082 21.1658C-0.159897 24.4858 -0.0368495 27.8412 0.567311 31.1253L83.3087 33.8797C85.5864 31.5036 87.5216 28.8181 89.0577 25.9015L0.202082 21.1658ZM32.9273 28.2706H31.2982C31.7463 28.2706 32.1132 28.6048 32.1132 29.0121C32.1132 29.4195 31.7463 29.7528 31.2982 29.7528H21.8741C21.4268 29.7528 21.0599 29.4195 21.0599 29.0121C21.0599 28.6048 21.4268 28.2706 21.8741 28.2706H23.5041C23.056 28.2706 22.6899 27.9373 22.6899 27.53C22.6899 27.1226 23.056 26.7884 23.5041 26.7884H22.3399C21.8918 26.7884 21.5249 26.4551 21.5249 26.0478C21.5249 25.6404 21.8918 25.3062 22.3399 25.3062H31.764C32.2121 25.3062 32.5782 25.6396 32.5782 26.0478C32.5782 26.4559 32.2121 26.7884 31.764 26.7884H32.9273C33.3754 26.7884 33.7415 27.1218 33.7415 27.53C33.7415 27.9381 33.3754 28.2706 32.9273 28.2706Z" fill="url(#paint2_linear_705_451)"/>
<path opacity="0.1" d="M92.7108 10.5625L2.37735 12.5609C1.27828 15.1315 0.549507 18.0381 0.213867 21.0501H91.1282C91.7198 19.2879 92.1588 17.4775 92.4403 15.6392C92.7117 13.8696 92.8199 12.1578 92.7108 10.5625ZM18.5548 17.1146H16.9257C17.3737 17.1146 17.7407 17.4488 17.7407 17.8561C17.7407 18.2635 17.3737 18.5977 16.9257 18.5977H7.50155C7.05431 18.5977 6.68739 18.2635 6.68739 17.8561C6.68739 17.4488 7.05431 17.1146 7.50155 17.1146H9.13156C8.68348 17.1146 8.3174 16.7813 8.3174 16.3739C8.3174 15.9666 8.68348 15.6324 9.13156 15.6324H7.96739C7.51931 15.6324 7.15239 15.2991 7.15239 14.8917C7.15239 14.4844 7.51931 14.1502 7.96739 14.1502H17.3915C17.8396 14.1502 18.2057 14.4836 18.2057 14.8917C18.2057 15.2999 17.8396 15.6324 17.3915 15.6324H18.5548C19.0029 15.6324 19.369 15.9666 19.369 16.3739C19.369 16.7813 19.0029 17.1146 18.5548 17.1146Z" fill="url(#paint3_linear_705_451)"/>
<path opacity="0.1" d="M46.0831 66.4208C66.9537 66.4208 83.8726 64.8553 83.8726 62.9241C83.8726 60.9929 66.9537 59.4274 46.0831 59.4274C25.2126 59.4274 8.2937 60.9929 8.2937 62.9241C8.2937 64.8553 25.2126 66.4208 46.0831 66.4208Z" fill="url(#paint4_linear_705_451)"/>
<path d="M84.598 34.0421C84.5976 34.0361 84.5976 34.0302 84.598 34.0242C84.598 34.0149 84.598 34.0063 84.598 33.9978C84.5811 33.9005 84.5445 33.8076 84.4907 33.7249C84.2972 33.4134 84.0277 33.157 83.7078 32.98C83.1498 32.6721 82.383 32.5403 82.1598 31.9527C82.0913 31.7707 82.0896 31.5726 82.0558 31.3821C81.9966 31.0853 81.8609 30.8094 81.6622 30.5821C81.4635 30.3548 81.2088 30.184 80.9237 30.087C80.6583 29.9977 80.3717 29.973 80.1138 29.8625C79.5372 29.6159 79.2329 29.0079 78.975 28.4458C78.6413 27.7201 78.3077 26.9942 77.974 26.268C77.7204 26.3964 77.3924 26.336 77.1548 26.1753C76.9259 26.0039 76.7436 25.7772 76.6247 25.5162C76.2806 24.8444 76.1326 24.0834 75.7285 23.4439C75.3244 22.8044 74.517 22.2993 73.8035 22.5774C73.6641 22.6474 73.5201 22.7073 73.3723 22.7568C72.761 22.9005 72.0847 22.1981 71.5614 22.5391C71.4744 22.5952 71.4036 22.6731 71.3559 22.7653C71.3554 22.7596 71.3554 22.7539 71.3559 22.7483C71.2878 22.8866 71.2498 23.0379 71.2443 23.1922C71.2443 23.2236 71.2443 23.2543 71.2443 23.284C71.2443 23.2891 71.2443 23.2942 71.2443 23.2993C71.2443 23.4218 71.2519 23.5459 71.2536 23.6701C71.2555 23.7743 71.2476 23.8786 71.2299 23.9813V23.9728C71.2201 24.0306 71.2053 24.0875 71.186 24.1429C71.0499 24.5103 70.6728 24.7509 70.4961 25.0962V25.0791C70.4762 25.1167 70.459 25.1556 70.4445 25.1956C70.4131 25.2861 70.3968 25.3813 70.3963 25.4771C70.3811 26.126 71.0651 26.7365 71.1446 27.433C71.2012 27.9262 71.3136 28.0844 71.7304 28.3633L71.8218 28.4245C71.7854 28.4245 71.7482 28.4296 71.7068 28.4305C71.6906 28.4308 71.6745 28.4325 71.6586 28.4356C71.585 28.4152 71.5079 28.4115 71.4328 28.4247C71.3576 28.438 71.2863 28.4678 71.224 28.5121C70.9045 28.7672 70.1486 28.5708 69.813 28.5121C69.4774 28.4534 68.3276 28.6116 68.1669 29.2528C68.0063 29.894 67.7307 31.2171 67.7307 31.2171C67.7307 31.2171 67.7307 32.0564 67.6284 32.2129C67.6244 32.2239 67.6244 32.2359 67.6284 32.2469C67.6284 32.4825 67.6368 33.8984 67.4103 34.2632C67.3545 34.3482 67.3587 34.5361 67.4001 34.7674C67.1617 35.0761 66.9377 35.4367 66.9774 35.6731C67.0501 36.1569 68.0257 37.6783 69.4241 36.8636C69.4241 36.8636 70.2196 35.4001 69.2186 34.622L69.2618 34.4519C69.5644 34.8261 69.7885 35.0948 69.7885 35.0948C69.7885 35.0948 69.8003 35.1263 69.8189 35.1799H69.7885C69.9191 35.5375 69.9983 35.912 70.0235 36.2921C70.0197 36.4315 69.9946 36.5695 69.9491 36.7012H69.9753C69.9677 36.7301 69.9592 36.759 69.9491 36.7862C69.9 36.9298 69.8082 37.0548 69.6862 37.1442C68.987 37.6425 68.1864 41.2013 68.1864 41.2013C68.1864 41.2013 66.6003 46.9541 66.2833 47.2815C66.0212 47.5502 67.6681 48.307 68.9041 48.2169C69.0767 48.2066 69.2471 48.174 69.4114 48.12C69.419 48.205 69.4275 48.29 69.4359 48.3674C69.4621 48.6225 69.4892 48.8589 69.5061 48.9329C69.5501 49.1183 69.6371 51.0112 69.6371 51.0112C69.6371 51.0112 69.4588 52.2409 69.5019 53.0963C69.5019 53.155 69.5095 53.2111 69.5145 53.2664L69.3607 53.2902C69.1273 53.8175 70.0886 58.2164 70.2196 58.5863C70.3064 58.8778 70.3553 59.1794 70.3651 59.4835C70.3651 59.4835 70.2805 59.7964 70.3507 59.9673C70.3944 60.0718 70.4229 60.1821 70.4352 60.2947C70.4352 60.2947 70.3777 60.5788 70.4648 60.7641C70.5519 60.9495 70.4504 61.2744 70.4504 61.2744C70.4504 61.2744 70.4217 62.5559 70.1596 63.2532C70.0883 63.4408 70.0675 63.6441 70.0994 63.8424C70.1313 64.0408 70.2148 64.2271 70.3414 64.3825C70.3596 64.4067 70.3794 64.4297 70.4006 64.4514C70.4006 64.4514 71.8463 64.4633 72.1007 64.4514H72.1337C72.236 64.4369 72.4981 63.2838 72.2648 62.7285C72.0314 62.1732 72.236 61.4895 72.236 61.4895V60.4793C72.236 60.4793 72.4981 60.2361 72.236 59.7139C71.9739 59.1918 72.0171 59.0336 72.0171 59.0336C72.0171 59.0336 72.3087 58.1935 72.0027 57.9231C71.6966 57.6526 72.061 56.6271 72.061 56.6271L72.1642 53.2086C72.1102 53.1909 72.0551 53.1767 71.9993 53.1661C71.9934 53.1099 71.9875 53.0521 71.9815 52.9909C71.9215 52.3718 71.8699 51.53 72.0035 51.2902C72.1371 51.0503 72.2014 48.9567 72.2225 47.5017L73.5549 47.5528C73.5828 48.2331 73.6124 48.8538 73.631 48.9329C73.675 49.1183 73.7629 51.0112 73.7629 51.0112C73.7629 51.0112 73.5836 52.2409 73.6268 53.0963C73.6268 53.155 73.6344 53.2111 73.6394 53.2664L73.4856 53.2902C73.2522 53.8175 74.2135 58.2164 74.3445 58.5863C74.4314 58.8778 74.4806 59.1794 74.4908 59.4835C74.4908 59.4835 74.4063 59.7964 74.4756 59.9673C74.5193 60.0718 74.5478 60.1821 74.5601 60.2947C74.5601 60.2947 74.5026 60.5788 74.5897 60.7641C74.6768 60.9495 74.5754 61.2744 74.5754 61.2744C74.5754 61.2744 74.5466 62.5559 74.2845 63.2532C74.2143 63.4411 74.1946 63.6444 74.2276 63.8424C74.2606 64.0404 74.3449 64.2261 74.4722 64.3808C74.4904 64.405 74.5102 64.428 74.5314 64.4497C74.5314 64.4497 75.9771 64.4616 76.2316 64.4497H76.2645C76.3668 64.4352 76.6289 63.2821 76.3956 62.7268C76.1622 62.1715 76.3668 61.4878 76.3668 61.4878V60.4793C76.3668 60.4793 76.6289 60.2361 76.3668 59.7139C76.1048 59.1918 76.1479 59.0336 76.1479 59.0336C76.1479 59.0336 76.4395 58.1935 76.1335 57.9231C75.8274 57.6526 76.1918 56.6271 76.1918 56.6271L76.2967 53.2086C76.2413 53.1906 76.1848 53.1764 76.1276 53.1661C76.1217 53.1099 76.1157 53.0521 76.1098 52.9909C76.0498 52.3718 75.9982 51.53 76.1318 51.2902C76.2392 51.0937 76.3009 49.8284 76.3288 48.5928C76.3288 48.5077 76.3288 48.4227 76.3356 48.3377C76.9477 48.312 77.5574 48.2433 78.16 48.1319C78.16 48.1319 77.4473 45.5969 77.6654 45.1845C77.7593 45.0068 77.624 44.0603 77.4389 43.0407C77.6971 43.2509 78.0181 43.3677 78.3502 43.3723C78.669 43.9889 79.6387 45.4073 80.1848 45.6258C80.8257 45.8809 80.3446 43.619 80.0394 43.2916C79.895 43.1128 79.7734 42.9165 79.6776 42.7074C79.686 42.6971 79.6953 42.6886 79.7038 42.6793C79.7122 42.6699 79.719 40.2727 79.5727 40.3161C79.4265 40.3595 79.2523 39.9598 79.2523 39.9598L78.8009 35.9741L78.6115 34.3057C78.7696 34.423 78.9573 34.4979 79.1187 34.6144C79.5584 34.9384 79.7021 35.5073 79.8949 36.0107C80.0538 36.4248 80.277 36.8355 80.6431 37.0957C81.0091 37.356 81.546 37.4248 81.9112 37.1612C82.2494 36.9138 82.3492 36.4673 82.4236 36.06C83.0374 36.2768 83.7822 35.6969 83.7027 35.0634C83.6833 34.9069 83.6258 34.736 83.7069 34.5991C83.8693 34.3286 84.3833 34.486 84.5524 34.2189C84.5808 34.1728 84.5955 34.1193 84.5946 34.065C84.5972 34.0531 84.598 34.048 84.598 34.0421ZM76.388 36.2343C76.3787 36.3865 76.5866 37.6094 76.7557 38.5771C76.6171 37.9742 76.3389 37.3305 75.7911 36.8891C75.7911 36.8891 75.7911 36.8585 75.7843 36.8041H75.7911C75.7911 36.8041 75.7683 36.5609 75.7649 36.2148C75.7659 35.908 75.7885 35.6016 75.8325 35.2981V35.2904H75.8215C75.8215 35.2649 75.8283 35.2385 75.8325 35.213C75.8661 34.9568 75.9353 34.7067 76.038 34.4698C76.0834 34.377 76.1356 34.2877 76.1944 34.2028C76.2848 35.0251 76.3964 36.0804 76.388 36.2343ZM76.8428 39.0678C76.9172 39.4853 76.9705 39.7787 76.9705 39.7787L77.4194 42.8791V42.8936C77.1776 41.5849 76.869 40.2056 76.869 40.2056C76.9005 39.8264 76.8917 39.445 76.8428 39.0678Z" fill="url(#paint5_linear_705_451)"/>
<path d="M71.3407 27.6031C71.2562 26.8173 70.4107 26.1396 70.6643 25.3921C70.8022 24.9848 71.2333 24.7356 71.3787 24.3308C71.4751 24.0638 71.432 23.7705 71.4328 23.4864C71.4337 23.2024 71.4996 22.8852 71.7347 22.7279C72.2419 22.3877 72.8946 23.0876 73.4864 22.9447C73.6295 22.8955 73.7688 22.8358 73.9032 22.7662C74.5939 22.4898 75.3751 22.9932 75.7632 23.6293C76.1512 24.2654 76.2967 25.0239 76.6298 25.6923C76.7435 25.9504 76.9196 26.1758 77.1421 26.3479C77.3721 26.5078 77.6866 26.5682 77.9351 26.4406L78.9032 28.6091C79.1568 29.1678 79.4476 29.7732 80.0022 30.019C80.2508 30.1287 80.5281 30.1533 80.7851 30.2426C81.0644 30.3417 81.313 30.5129 81.5059 30.739C81.6987 30.9651 81.8292 31.2382 81.8842 31.5309C81.9171 31.7214 81.918 31.9187 81.9848 32.0998C82.2004 32.6849 82.9418 32.8159 83.4821 33.1203C83.7946 33.2975 84.0566 33.5526 84.2429 33.861C84.3275 34.0081 84.4002 34.2011 84.3097 34.3457C84.1466 34.611 83.6503 34.4545 83.493 34.7241C83.4136 34.8601 83.4694 35.0302 83.493 35.1867C83.57 35.8168 82.8488 36.3942 82.2553 36.1782C82.1835 36.5839 82.0862 37.0286 81.7599 37.2744C81.409 37.538 80.8891 37.4682 80.5348 37.2097C80.1806 36.9512 79.9659 36.5422 79.812 36.1298C79.6252 35.628 79.4857 35.0617 79.0604 34.7394C78.9065 34.6237 78.7222 34.5489 78.5717 34.4324C78.2336 34.1722 78.0645 33.7428 77.9436 33.3269C77.7872 32.8082 77.6629 32.275 77.4363 31.7852C77.2097 31.2954 76.8513 30.8396 76.3601 30.6159C75.8993 30.4076 75.3684 30.4212 74.8924 30.252C74.0732 29.9612 73.467 29.2681 72.652 28.9416C72.3914 28.8314 72.1446 28.691 71.9164 28.5232C71.5064 28.2519 71.3948 28.0946 71.3407 27.6031Z" fill="#3F3D56"/>
<g opacity="0.1">
<path d="M71.4167 24.1642C71.4342 24.131 71.4494 24.0966 71.4624 24.0613C71.5579 23.7943 71.5157 23.5009 71.5165 23.2169C71.5165 23.1222 71.5252 23.0276 71.5427 22.9346C71.4647 23.1026 71.4268 23.2866 71.432 23.472C71.4311 23.7008 71.4582 23.9406 71.4167 24.1642Z" fill="url(#paint6_linear_705_451)"/>
<path d="M81.8393 37.0074C81.4884 37.2702 80.9685 37.2013 80.6143 36.9419C80.26 36.6826 80.0444 36.2752 79.8948 35.8611C79.7079 35.3594 79.5693 34.793 79.1432 34.4708C78.9902 34.3551 78.805 34.2794 78.6554 34.1638C78.3172 33.9036 78.1481 33.4741 78.0264 33.0625C77.87 32.5438 77.7465 32.0106 77.5191 31.5208C77.2917 31.031 76.9349 30.5752 76.4429 30.3516C75.9829 30.1432 75.452 30.1568 74.976 29.9876C74.1559 29.6968 73.5498 29.0037 72.7356 28.6772C72.475 28.5667 72.2279 28.4263 71.9992 28.2588C71.5985 27.9807 71.492 27.8234 71.4328 27.3327C71.3482 26.5963 70.6043 25.9543 70.7201 25.2604C70.7012 25.2979 70.6846 25.3365 70.6702 25.376C70.4166 26.1244 71.262 26.8021 71.3466 27.587C71.4015 28.0777 71.5156 28.235 71.913 28.513C72.1416 28.6806 72.3887 28.821 72.6494 28.9314C73.4635 29.258 74.0697 29.9519 74.8898 30.2419C75.3658 30.4119 75.8967 30.3975 76.3566 30.6058C76.8487 30.8295 77.2021 31.2861 77.4329 31.7751C77.6637 32.264 77.7871 32.7955 77.9401 33.3168C78.0644 33.7284 78.2276 34.1578 78.5691 34.418C78.7222 34.5337 78.9073 34.6094 79.057 34.725C79.4797 35.0473 79.6217 35.6137 79.8086 36.1154C79.9624 36.5278 80.178 36.936 80.5322 37.1945C80.8865 37.453 81.4064 37.5227 81.7573 37.26C81.9813 37.0899 82.0955 36.8305 82.1707 36.5525C82.1038 36.7318 81.9892 36.8892 81.8393 37.0074Z" fill="url(#paint7_linear_705_451)"/>
<path d="M83.5767 34.4571C83.5443 34.518 83.5302 34.5872 83.5361 34.656C83.7272 34.4664 84.1583 34.5778 84.3088 34.3337C84.3438 34.2734 84.3575 34.203 84.3477 34.1339C84.1516 34.321 83.7204 34.2096 83.5767 34.4571Z" fill="url(#paint8_linear_705_451)"/>
<path d="M82.3348 35.9112C82.3187 35.9962 82.3026 36.0872 82.2823 36.1757C82.7998 36.3381 83.3975 35.9205 83.482 35.3933C83.2766 35.7989 82.7693 36.0702 82.3348 35.9112Z" fill="url(#paint9_linear_705_451)"/>
</g>
<path d="M72.433 28.0121C72.433 28.0121 72.7145 28.5836 71.8835 28.5955C71.0524 28.6074 72.4186 32.3065 72.4186 32.3065L73.8001 34.0753L75.5189 33.1399L75.6178 30.5599L75.7446 29.0011C75.7446 29.0011 74.1383 28.4764 74.4342 27.7825C74.7301 27.0886 72.433 28.0121 72.433 28.0121Z" fill="#FBBEBE"/>
<path d="M77.4219 43.0943C77.4219 43.0943 78.4364 44.0986 79.62 42.7661L78.7112 41.7958H77.5614L77.4219 43.0943Z" fill="#575A89"/>
<path opacity="0.1" d="M77.5318 41.7958L77.3923 43.0943C77.3923 43.0943 78.4069 44.0986 79.5905 42.7661" fill="url(#paint10_linear_705_451)"/>
<path d="M79.2388 41.9727C79.2388 41.9727 79.6471 43.0501 79.943 43.3758C80.2389 43.7015 80.7039 45.9549 80.0842 45.6998C79.4645 45.4447 78.2809 43.5458 78.2099 43.2201C78.1389 42.8945 78.1118 41.9727 78.1118 41.9727H79.2388Z" fill="#FBBEBE"/>
<path d="M70.3761 47.5001L75.8427 47.7127L75.2086 45.3878L72.455 45.3317L70.3761 47.5001Z" fill="#575A89"/>
<path opacity="0.1" d="M71.1361 47.5001L76.6036 47.7127L75.9695 45.3878L73.215 45.3317L71.1361 47.5001Z" fill="url(#paint11_linear_705_451)"/>
<path d="M72.165 51.3378C72.0357 51.5802 72.0856 52.4186 72.1439 53.0385C72.1811 53.4331 72.2217 53.7367 72.2217 53.7367C72.2217 53.7367 70.1783 54.3745 69.8688 53.8217C69.7902 53.6814 69.7513 53.4357 69.7378 53.1474C69.6955 52.297 69.8688 51.0716 69.8688 51.0716C69.8688 51.0716 69.7843 49.1872 69.742 49.0027C69.7251 48.9287 69.6989 48.694 69.6735 48.4397C69.6363 48.0622 69.6008 47.6421 69.6008 47.6421L72.3908 46.1539C72.3908 46.1539 72.3908 46.4329 72.3857 46.8623C72.3705 48.211 72.3257 51.0402 72.165 51.3378Z" fill="#FBBEBE"/>
<path opacity="0.1" d="M72.2217 53.7367C72.2217 53.7367 70.1783 54.3745 69.8688 53.8218C69.7902 53.6815 69.7513 53.4357 69.7378 53.1474C70.1605 53.0828 71.4473 52.9042 72.1439 53.0386C72.1811 53.4332 72.2217 53.7367 72.2217 53.7367Z" fill="url(#paint12_linear_705_451)"/>
<path d="M72.2919 64.4514H72.2597C72.0137 64.4607 70.6154 64.4514 70.6154 64.4514C70.5949 64.4299 70.5757 64.4071 70.5579 64.3834C70.4343 64.2277 70.3527 64.0427 70.3208 63.8461C70.289 63.6495 70.308 63.4479 70.3761 63.2609C70.6297 62.5661 70.6576 61.2906 70.6576 61.2906C70.6576 61.2906 70.7566 60.9649 70.672 60.7803C70.5875 60.5958 70.6433 60.3126 70.6433 60.3126C70.6303 60.2006 70.6018 60.091 70.5587 59.9869C70.4886 59.8169 70.5731 59.5048 70.5731 59.5048C70.5634 59.2024 70.516 58.9024 70.4319 58.6119C70.3051 58.2437 69.3751 53.8643 69.6008 53.3396C69.6008 53.3396 71.5732 52.9994 72.3206 53.2545L72.2217 56.656C72.2217 56.656 71.8692 57.6765 72.1651 57.946C72.461 58.2156 72.1794 59.0515 72.1794 59.0515C72.1794 59.0515 72.1372 59.2071 72.3908 59.7318C72.6444 60.2565 72.3908 60.4972 72.3908 60.4972V61.5031C72.3908 61.5031 72.1938 62.1834 72.4187 62.7362C72.6436 63.2889 72.3908 64.4335 72.2919 64.4514Z" fill="#3F3D56"/>
<path d="M76.1631 51.3378C76.0337 51.5801 76.0836 52.4186 76.142 53.0385C76.1792 53.4331 76.2197 53.7367 76.2197 53.7367C76.2197 53.7367 74.1763 54.3744 73.8669 53.8217C73.7883 53.6814 73.7494 53.4356 73.7358 53.1474C73.6936 52.297 73.8669 51.0716 73.8669 51.0716C73.8669 51.0716 73.7823 49.1872 73.7401 49.0026C73.7172 48.9032 73.6775 47.9541 73.6462 47.1029C73.62 46.3767 73.5989 45.7202 73.5989 45.7202L76.3888 46.1539C76.3888 46.1539 76.3888 47.3878 76.3542 48.6557C76.3237 49.8853 76.2671 51.1456 76.1631 51.3378Z" fill="#FBBEBE"/>
<path opacity="0.1" d="M76.2197 53.7367C76.2197 53.7367 74.1763 54.3745 73.8669 53.8218C73.7883 53.6815 73.7494 53.4357 73.7358 53.1474C74.1586 53.0828 75.4453 52.9042 76.142 53.0386C76.1792 53.4332 76.2197 53.7367 76.2197 53.7367Z" fill="url(#paint13_linear_705_451)"/>
<path d="M76.2899 64.4514H76.2578C76.0117 64.4607 74.6134 64.4514 74.6134 64.4514C74.5929 64.4298 74.5737 64.4071 74.5559 64.3833C74.4323 64.2277 74.3507 64.0426 74.3189 63.846C74.287 63.6494 74.3061 63.4479 74.3741 63.2609C74.6278 62.5627 74.6531 61.2871 74.6531 61.2871C74.6531 61.2871 74.752 60.9614 74.6675 60.7769C74.5829 60.5924 74.6388 60.3092 74.6388 60.3092C74.6258 60.1972 74.5973 60.0876 74.5542 59.9835C74.484 59.8134 74.5686 59.5014 74.5686 59.5014C74.5589 59.199 74.5115 58.899 74.4274 58.6085C74.3006 58.2403 73.3706 53.8608 73.5963 53.3362C73.5963 53.3362 75.5687 52.996 76.3161 53.2511L76.2172 56.6526C76.2172 56.6526 75.8646 57.6731 76.1605 57.9426C76.4564 58.2122 76.1749 59.0481 76.1749 59.0481C76.1749 59.0481 76.1326 59.2037 76.3863 59.7284C76.6399 60.2531 76.3863 60.4937 76.3863 60.4937V61.4997C76.3863 61.4997 76.1893 62.18 76.4142 62.7328C76.6391 63.2855 76.3888 64.4335 76.2899 64.4514Z" fill="#3F3D56"/>
<path opacity="0.1" d="M73.5321 28.6805C74.6293 28.6805 75.5189 27.7858 75.5189 26.6821C75.5189 25.5784 74.6293 24.6837 73.5321 24.6837C72.4348 24.6837 71.5453 25.5784 71.5453 26.6821C71.5453 27.7858 72.4348 28.6805 73.5321 28.6805Z" fill="url(#paint14_linear_705_451)"/>
<path d="M73.5321 28.5955C74.6293 28.5955 75.5189 27.7008 75.5189 26.5971C75.5189 25.4935 74.6293 24.5988 73.5321 24.5988C72.4348 24.5988 71.5453 25.4935 71.5453 26.5971C71.5453 27.7008 72.4348 28.5955 73.5321 28.5955Z" fill="#FBBEBE"/>
<path opacity="0.1" d="M69.6008 47.6421L72.3908 46.1539C72.3908 46.1539 72.3908 46.4329 72.3857 46.8623C71.9782 47.1072 71.3636 47.4754 70.7726 47.8232C70.4513 48.0128 70.1377 48.1965 69.8688 48.3504C69.8064 48.3845 69.741 48.413 69.6735 48.4355C69.6363 48.0622 69.6008 47.6421 69.6008 47.6421Z" fill="url(#paint15_linear_705_451)"/>
<path opacity="0.1" d="M76.3889 46.1505C76.3889 46.1505 76.3889 47.3844 76.3542 48.6523H76.3441C76.1356 48.6597 75.9269 48.6532 75.7193 48.6327C75.3549 48.5936 75.0632 48.4967 74.9584 48.3045C74.7462 47.9303 74.1518 47.4541 73.6496 47.0995C73.6234 46.3733 73.6023 45.7168 73.6023 45.7168L76.3889 46.1505Z" fill="url(#paint16_linear_705_451)"/>
<path d="M75.8697 35.3432C75.799 35.8967 75.7854 36.4561 75.8291 37.0125C77.1108 38.0754 76.8715 40.3145 76.8715 40.3145C76.8715 40.3145 77.8582 44.8504 77.6468 45.2611C77.4354 45.6718 78.1253 48.1949 78.1253 48.1949C77.5373 48.307 76.9419 48.3757 76.344 48.4007C76.1355 48.4081 75.9268 48.4016 75.7192 48.3811C75.3548 48.342 75.0631 48.245 74.9583 48.0529C74.5643 47.359 72.8591 46.324 72.8591 46.324C72.8591 46.324 71.7786 46.9754 70.7725 47.5681C70.4513 47.7578 70.1376 47.9415 69.8688 48.0954C69.6506 48.2118 69.4095 48.2783 69.1628 48.2901C67.9665 48.3794 66.3729 47.626 66.6265 47.359C66.9368 47.0324 68.4729 41.3069 68.4729 41.3069C68.4729 41.3069 69.2474 37.7634 69.9237 37.2676C70.0423 37.1775 70.1308 37.0532 70.1773 36.9113C70.409 36.2642 70.0218 35.2267 70.0218 35.2267C70.0218 35.2267 67.838 32.52 67.9361 32.3635C68.0342 32.207 68.035 31.372 68.035 31.372C68.035 31.372 68.303 30.0539 68.4577 29.4161C68.6124 28.7783 69.7259 28.6219 70.0497 28.6788C70.3735 28.7358 71.1056 28.934 71.4151 28.6788C71.7245 28.4237 72.247 28.7783 72.247 28.7783L73.5304 29.1338L74.6844 28.4535C74.6844 28.4535 75.8409 28.513 75.9399 28.6686C76.0388 28.8243 77.5606 29.1227 77.5606 29.1227C78.335 29.6466 78.3071 32.1416 78.3071 32.1416C78.3071 32.1416 76.4471 33.7709 76.0667 34.6076C75.9681 34.8427 75.9019 35.0902 75.8697 35.3432Z" fill="#575A89"/>
<path d="M77.8861 31.7963L78.3089 32.1364L78.7459 36.0906L79.1822 40.0593C79.1822 40.0593 79.3513 40.4564 79.4925 40.4139C79.6337 40.3714 79.6193 42.7661 79.6193 42.7661C79.6193 42.7661 78.0011 41.7652 77.4211 43.0943L76.9697 39.8893C76.9697 39.8893 76.3914 36.6153 76.4058 36.3602C76.4201 36.1051 76.1099 33.3414 76.1099 33.3414L77.8861 31.7963Z" fill="#575A89"/>
<path d="M68.2481 31.9808L67.9378 32.3635C67.9378 32.3635 67.9666 34.0073 67.7265 34.4044C67.4864 34.8015 68.3893 37.1256 68.7275 36.9836C69.0657 36.8416 69.8266 33.2139 69.8266 33.1714C69.8266 33.1288 68.2481 31.9808 68.2481 31.9808Z" fill="#575A89"/>
<path d="M68.2202 34.3193C68.2202 34.3193 67.2336 35.3253 67.3037 35.8075C67.3739 36.2896 68.3183 37.8042 69.671 36.9904C69.671 36.9904 70.9256 34.617 68.2202 34.3193Z" fill="#575A89"/>
<path opacity="0.1" d="M72.2597 64.4539C72.0137 64.4632 70.6154 64.4539 70.6154 64.4539C70.5949 64.4323 70.5757 64.4096 70.5579 64.3858C70.9155 64.2634 71.6882 64.0797 72.2597 64.4539Z" fill="url(#paint17_linear_705_451)"/>
<path opacity="0.1" d="M76.2595 64.4539C76.0135 64.4632 74.6151 64.4539 74.6151 64.4539C74.5946 64.4323 74.5754 64.4096 74.5576 64.3858C74.9135 64.2634 75.6863 64.0797 76.2595 64.4539Z" fill="url(#paint18_linear_705_451)"/>
<path opacity="0.1" d="M70.8723 39.527C70.6567 41.607 70.7277 45.7347 70.7725 47.5681C70.4513 47.7577 70.1376 47.9414 69.8687 48.0953C69.6506 48.2117 69.4095 48.2782 69.1628 48.2901C69.0732 47.7356 70.3143 42.0407 70.8723 39.527Z" fill="url(#paint19_linear_705_451)"/>
<path opacity="0.1" d="M71.1361 38.3467C71.1302 38.3764 71.0279 38.8288 70.8723 39.527C70.9332 38.9309 71.0177 38.5031 71.1361 38.3467Z" fill="url(#paint20_linear_705_451)"/>
<path opacity="0.1" d="M74.5686 38.1222C74.5686 38.1222 75.7666 45.6905 72.2191 46.6259C72.2183 46.6225 74.6734 46.2475 74.5686 38.1222Z" fill="url(#paint21_linear_705_451)"/>
<path opacity="0.1" d="M76.344 48.4006C76.1356 48.408 75.9268 48.4015 75.7192 48.381L74.7622 38.0328C75.3726 38.4342 76.1031 45.778 76.344 48.4006Z" fill="url(#paint22_linear_705_451)"/>
<path opacity="0.1" d="M72.0526 25.4219C72.1161 25.4168 72.18 25.4234 72.2411 25.4414C72.3309 25.4864 72.4117 25.5475 72.4795 25.6217C72.5898 25.7144 72.7216 25.7774 72.8627 25.8049C73.0037 25.8325 73.1494 25.8235 73.2861 25.779C73.3825 25.7357 73.4848 25.707 73.5896 25.694C73.7511 25.694 73.8906 25.813 73.9743 25.9491C74.058 26.0852 74.1011 26.2467 74.173 26.3922C74.2448 26.5376 74.3598 26.6753 74.5179 26.711C74.5937 26.714 74.6683 26.7313 74.7377 26.7621C74.7803 26.7968 74.8129 26.8423 74.8324 26.8939C74.9643 27.1804 75.0691 27.5189 75.3507 27.6592C75.4542 27.7075 75.5671 27.7322 75.6812 27.7315C75.7973 27.7401 75.9136 27.719 76.0194 27.6703C76.1235 27.6118 76.2095 27.5256 76.268 27.4211C76.4438 27.1286 76.4641 26.7663 76.4227 26.427C76.3711 25.999 76.2195 25.5893 75.9805 25.2314C75.7287 24.8694 75.3859 24.5811 74.9871 24.396C74.5883 24.2109 74.1477 24.1356 73.7105 24.1778C73.5579 24.195 73.4067 24.2235 73.2582 24.2628C72.7205 24.4074 72.1929 24.6778 71.8666 25.1311C71.7877 25.2442 71.701 25.3516 71.6071 25.4525C71.755 25.438 71.9038 25.4253 72.0526 25.4219Z" fill="url(#paint23_linear_705_451)"/>
<path d="M72.0526 25.3368C72.1161 25.3317 72.18 25.3383 72.2411 25.3564C72.3309 25.4013 72.4117 25.4624 72.4795 25.5366C72.5898 25.6293 72.7216 25.6923 72.8627 25.7199C73.0037 25.7474 73.1494 25.7385 73.2861 25.694C73.3825 25.6506 73.4848 25.6219 73.5896 25.6089C73.7511 25.6089 73.8906 25.728 73.9743 25.864C74.058 26.0001 74.1011 26.1617 74.173 26.3071C74.2448 26.4525 74.3598 26.5902 74.5179 26.626C74.5937 26.6289 74.6683 26.6462 74.7377 26.677C74.7803 26.7118 74.8129 26.7572 74.8324 26.8088C74.9643 27.0954 75.0691 27.4338 75.3507 27.5741C75.4542 27.6224 75.5671 27.6471 75.6812 27.6464C75.7973 27.655 75.9136 27.6339 76.0194 27.5852C76.1235 27.5267 76.2095 27.4405 76.268 27.336C76.4438 27.0435 76.4641 26.6812 76.4227 26.3419C76.3711 25.9139 76.2195 25.5042 75.9805 25.1463C75.7287 24.7843 75.3859 24.4961 74.9871 24.3109C74.5883 24.1258 74.1477 24.0505 73.7105 24.0927C73.5579 24.11 73.4067 24.1384 73.2582 24.1777C72.7205 24.3223 72.1929 24.5927 71.8666 25.046C71.7877 25.1591 71.701 25.2665 71.6071 25.3674C71.755 25.353 71.9038 25.3402 72.0526 25.3368Z" fill="#3F3D56"/>
<path opacity="0.1" d="M69.8966 30.0955C69.8966 30.0955 69.9955 30.8897 69.6574 31.0878C69.3192 31.286 69.8966 30.0955 69.8966 30.0955Z" fill="url(#paint24_linear_705_451)"/>
<path opacity="0.1" d="M77.0686 36.2471C77.0686 36.2471 77.8718 35.0565 77.9851 35.3967C78.0983 35.7368 77.0686 36.2471 77.0686 36.2471Z" fill="url(#paint25_linear_705_451)"/>
<path opacity="0.1" d="M77.1252 36.6434C77.1252 36.6434 77.9174 35.6655 77.9935 36.0482C78.0696 36.4308 77.1252 36.6434 77.1252 36.6434Z" fill="url(#paint26_linear_705_451)"/>
<path opacity="0.1" d="M74.7985 35.4792C74.5112 35.4833 74.2308 35.3905 74.0021 35.2156H73.9327C73.6955 35.4336 73.384 35.5514 73.0628 35.5447C72.8958 35.5486 72.7297 35.5183 72.5746 35.4558C72.4196 35.3932 72.2788 35.2996 72.1607 35.1807H72.0686C71.8252 35.3801 71.5194 35.4864 71.2056 35.4806C70.8917 35.4748 70.59 35.3575 70.354 35.1493L70.0234 35.1433C70.0234 35.1433 70.4107 36.1808 70.179 36.8279L75.8291 36.9291C75.7853 36.3727 75.7989 35.8133 75.8697 35.2598V35.2522L75.5594 35.2462C75.3362 35.4019 75.0701 35.4834 74.7985 35.4792Z" fill="url(#paint27_linear_705_451)"/>
<path opacity="0.1" d="M74.7985 35.6493C74.5112 35.6533 74.2308 35.5605 74.0021 35.3856H73.9327C73.6955 35.6036 73.384 35.7215 73.0628 35.7147C72.8958 35.7186 72.7297 35.6884 72.5746 35.6258C72.4196 35.5633 72.2788 35.4697 72.1607 35.3508H72.0686C71.8252 35.5502 71.5194 35.6564 71.2056 35.6507C70.8917 35.6449 70.59 35.5275 70.354 35.3193L70.0234 35.3134C70.0234 35.3134 70.4107 36.3508 70.179 36.9979L75.8291 37.0991C75.7853 36.5428 75.7989 35.9834 75.8697 35.4299V35.4222L75.5594 35.4162C75.3362 35.5719 75.0701 35.6534 74.7985 35.6493Z" fill="url(#paint28_linear_705_451)"/>
<path d="M74.7985 35.5643C74.5112 35.5684 74.2308 35.4756 74.0021 35.3007H73.9327C73.6955 35.5187 73.384 35.6365 73.0628 35.6298C72.8958 35.6337 72.7297 35.6034 72.5746 35.5409C72.4196 35.4783 72.2788 35.3847 72.1607 35.2658H72.0686C71.8252 35.4652 71.5194 35.5714 71.2056 35.5657C70.8917 35.5599 70.59 35.4425 70.354 35.2343L70.0234 35.2284C70.0234 35.2284 70.4107 36.2658 70.179 36.913L75.8291 37.0142C75.7853 36.4578 75.7989 35.8984 75.8697 35.3449V35.3372L75.5594 35.3313C75.3362 35.487 75.0701 35.5685 74.7985 35.5643Z" fill="#3F3D56"/>
<path opacity="0.1" d="M74.5475 29.8939C74.5475 29.8939 75.737 29.9705 75.7446 30.1405C75.7522 30.3106 74.5475 29.8939 74.5475 29.8939Z" fill="url(#paint29_linear_705_451)"/>
<path opacity="0.1" d="M71.6578 29.1686C71.6578 29.1686 70.4682 29.2451 70.4606 29.4152C70.453 29.5853 71.6578 29.1686 71.6578 29.1686Z" fill="url(#paint30_linear_705_451)"/>
<path opacity="0.1" d="M76.2037 32.6458C76.1918 32.6373 76.18 32.6305 76.1682 32.6228C76.4725 32.8983 76.4218 33.5004 76.0481 33.997C75.6744 34.4936 75.1071 34.7003 74.7622 34.4775C74.7732 34.4868 74.7825 34.497 74.7943 34.5064C75.1325 34.7666 75.7243 34.5625 76.1149 34.0489C76.5055 33.5353 76.5436 32.9068 76.2037 32.6458Z" fill="url(#paint31_linear_705_451)"/>
<path opacity="0.1" d="M69.6693 33.9333C69.3683 33.3873 69.4072 32.7844 69.7479 32.5557C69.7352 32.5616 69.7217 32.5667 69.709 32.5735C69.3353 32.7827 69.2863 33.4094 69.5957 33.9741C69.9051 34.5387 70.4631 34.8245 70.8368 34.6187C70.8492 34.6115 70.861 34.6036 70.8723 34.5949C70.4995 34.7649 69.9702 34.4792 69.6693 33.9333Z" fill="url(#paint32_linear_705_451)"/>
<path opacity="0.1" d="M70.0717 29.3293L69.9626 29.4994L69.6844 29.3506L69.8307 29.1244C69.9274 29.1704 70.0105 29.241 70.0717 29.3293Z" fill="url(#paint33_linear_705_451)"/>
<path d="M68.3048 35.6229C68.3048 35.6229 68.5525 34.4511 68.2202 34.0786C67.888 33.7062 67.9945 31.7537 68.5018 31.7962C69.009 31.8387 69.7699 33.383 69.6431 33.7096C69.5163 34.0361 69.0369 35.7079 69.0369 35.7079L68.3048 35.6229Z" fill="#FBBEBE"/>
<path opacity="0.1" d="M76.2594 27.1685C76.2009 27.273 76.1149 27.3592 76.0109 27.4176C75.9051 27.4664 75.7887 27.4874 75.6727 27.4789C75.5585 27.4795 75.4457 27.4549 75.3421 27.4066C75.0606 27.2654 74.9557 26.927 74.8239 26.6412C74.8072 26.5897 74.7775 26.5434 74.7376 26.5069C74.6691 26.4756 74.5955 26.4574 74.5203 26.4533C74.3622 26.4176 74.2481 26.279 74.1754 26.1344C74.1027 25.9899 74.0596 25.83 73.9767 25.6914C73.8939 25.5528 73.7535 25.4312 73.5921 25.4363C73.4869 25.4503 73.3846 25.4804 73.2885 25.5256C73.1517 25.5697 73.0061 25.5784 72.8651 25.5507C72.724 25.5231 72.5923 25.46 72.482 25.3674C72.4141 25.2932 72.3333 25.2321 72.2436 25.1871C72.1824 25.1691 72.1185 25.1625 72.055 25.1675C71.9578 25.1675 71.8614 25.1769 71.7642 25.1846C71.7161 25.2481 71.6644 25.3088 71.6095 25.3665C71.7574 25.3538 71.9062 25.341 72.055 25.3376C72.1185 25.3325 72.1824 25.3392 72.2436 25.3572C72.3333 25.4022 72.4141 25.4633 72.482 25.5375C72.5923 25.6301 72.724 25.6931 72.8651 25.7208C73.0061 25.7484 73.1517 25.7398 73.2885 25.6956C73.3846 25.6505 73.4869 25.6204 73.5921 25.6063C73.7535 25.6063 73.893 25.7254 73.9767 25.8615C74.0604 25.9975 74.1035 26.1591 74.1754 26.3045C74.2473 26.4499 74.3622 26.5877 74.5203 26.6234C74.5955 26.6275 74.6691 26.6456 74.7376 26.677C74.7802 26.7117 74.8128 26.7572 74.8323 26.8088C74.9642 27.0953 75.069 27.4338 75.3506 27.5741C75.4541 27.6224 75.567 27.6471 75.6811 27.6464C75.7972 27.6549 75.9135 27.6339 76.0193 27.5852C76.1234 27.5267 76.2094 27.4405 76.2679 27.336C76.3991 27.0956 76.4579 26.822 76.437 26.5486C76.4305 26.7669 76.3695 26.9801 76.2594 27.1685Z" fill="url(#paint34_linear_705_451)"/>
<path d="M68.6792 36.5523C69.0995 36.5523 69.4401 36.3201 69.4401 36.0336C69.4401 35.7471 69.0995 35.5149 68.6792 35.5149C68.259 35.5149 67.9183 35.7471 67.9183 36.0336C67.9183 36.3201 68.259 36.5523 68.6792 36.5523Z" fill="#575A89"/>
<path d="M43.8775 64.908C58.282 64.908 69.9593 53.1626 69.9593 38.674C69.9593 24.1854 58.282 12.4401 43.8775 12.4401C29.4729 12.4401 17.7957 24.1854 17.7957 38.674C17.7957 53.1626 29.4729 64.908 43.8775 64.908Z" fill="url(#paint35_linear_705_451)"/>
<path d="M57.5626 51.8574C57.5626 55.9987 51.09 52.2111 44.1506 52.2111C37.2112 52.2111 30.1924 55.8422 30.1924 51.7009C30.1924 49.3394 32.4294 46.0553 35.6387 43.67C38.0567 41.8723 41.0258 40.5848 44.0086 40.5848C47.0758 40.5848 50.0805 41.9786 52.4773 43.8919C55.5023 46.3044 57.5626 49.5461 57.5626 51.8574Z" fill="#444053"/>
<path d="M52.4764 43.8902C48.7878 43.3315 42.1164 42.6504 35.6387 43.6683C38.0566 41.8706 41.0258 40.5831 44.0085 40.5831C47.0749 40.5831 50.0796 41.9769 52.4764 43.8902Z" fill="#F6F8FB"/>
<path opacity="0.05" d="M30.1923 20.1555C30.1923 20.1555 22.3357 25.2076 22.3999 33.1101C22.4642 41.0126 30.1923 20.1555 30.1923 20.1555Z" fill="url(#paint36_linear_705_451)"/>
<path d="M69.9491 5.88708C69.9491 5.88708 62.8305 5.45594 63.67 10.4731C63.67 10.4731 63.5009 11.3592 64.3024 11.7623C64.3024 11.7623 64.3151 11.3907 65.032 11.5165C65.2875 11.5595 65.5472 11.5721 65.8056 11.554C66.1548 11.5301 66.4867 11.3921 66.7508 11.1611C66.7508 11.1611 68.7519 10.3303 69.5306 7.04019C69.5306 7.04019 70.1063 6.32247 70.0835 6.13879L68.8821 6.65412C68.8821 6.65412 69.2922 7.52575 68.9667 8.25026C68.9667 8.25026 68.9278 6.68643 68.697 6.71959C68.6505 6.72725 68.0731 7.02148 68.0731 7.02148C68.0731 7.02148 68.779 8.54024 68.2421 9.64317C68.2421 9.64317 68.4442 7.77235 67.8482 7.13117L67.0027 7.62779C67.0027 7.62779 67.8279 9.19588 67.2682 10.4757C67.2682 10.4757 67.4119 8.51303 66.8252 7.74855L66.0584 8.34976C66.0584 8.34976 66.8336 9.89573 66.361 10.957C66.361 10.957 66.2993 8.67205 65.8927 8.49942C65.8927 8.49942 65.2222 9.09468 65.1199 9.33874C65.1199 9.33874 65.6509 10.4604 65.322 11.0522C65.322 11.0522 65.1199 9.53007 64.9542 9.52157C64.9542 9.52157 64.2863 10.5301 64.2162 11.2223C64.2162 11.2223 64.2458 10.1934 64.7919 9.42548C64.7919 9.42548 64.146 9.53688 63.7698 9.95866C63.7698 9.95866 63.8738 9.2452 64.9534 9.18312C64.9534 9.18312 65.5055 8.41779 65.6534 8.37187C65.6534 8.37187 64.5755 8.28088 63.922 8.57256C63.922 8.57256 64.4969 7.89991 65.8504 8.20519L66.6113 7.58442C66.6113 7.58442 65.1926 7.38884 64.5907 7.60483C64.5907 7.60483 65.2831 7.00957 66.815 7.44326L67.6393 6.94749C67.6393 6.94749 66.4295 6.68558 65.7084 6.77742C65.7084 6.77742 66.4693 6.36499 67.8803 6.81229L68.4721 6.54612C68.4721 6.54612 67.5852 6.37094 67.3257 6.34373C67.0661 6.31652 67.0526 6.24339 67.0526 6.24339C67.6158 6.15128 68.1934 6.21871 68.7207 6.43812C68.7207 6.43812 69.9702 5.96617 69.9491 5.88708Z" fill="url(#paint37_linear_705_451)"/>
<path d="M62.6478 3.65658C62.6478 3.65658 59.4352 3.46099 59.8105 5.72808C59.8105 5.72808 59.7353 6.12861 60.0963 6.31059C60.0963 6.31059 60.1014 6.14051 60.426 6.20004C60.5414 6.21914 60.6585 6.22484 60.7752 6.21705C60.9331 6.20571 61.0831 6.14337 61.203 6.03932C61.203 6.03932 62.1067 5.66346 62.4585 4.17701C62.4585 4.17701 62.7188 3.85301 62.7121 3.76968L62.1693 4.00268C62.1693 4.00268 62.3553 4.3964 62.209 4.72379C62.209 4.72379 62.1913 4.01714 62.0873 4.03414C62.0662 4.03414 61.8049 4.1702 61.8049 4.1702C61.8049 4.1702 62.1245 4.85645 61.8836 5.35477C61.8836 5.35477 61.9749 4.5095 61.706 4.21953L61.3239 4.44402C61.3239 4.44402 61.6967 5.15323 61.4439 5.73149C61.4439 5.73149 61.5082 4.84455 61.2436 4.4993L60.8969 4.77057C60.8969 4.77057 61.2469 5.46872 61.0339 5.94833C61.0339 5.94833 61.006 4.91598 60.8217 4.83774C60.8217 4.83774 60.519 5.10646 60.4725 5.21701C60.4725 5.21701 60.7126 5.72723 60.5638 5.9917C60.5638 5.9917 60.4725 5.30375 60.3947 5.3012C60.3947 5.3012 60.0929 5.75615 60.0616 6.06653C60.0762 5.77768 60.1657 5.4977 60.3212 5.25443C60.1472 5.28753 59.9867 5.3712 59.8596 5.49508C59.8596 5.49508 59.9061 5.17279 60.3956 5.14473C60.3956 5.14473 60.645 4.79948 60.7118 4.77822C60.7118 4.77822 60.2248 4.7374 59.9297 4.86921C59.9297 4.86921 60.1893 4.56478 60.8014 4.69913L61.1396 4.41936C61.1396 4.41936 60.4987 4.33433 60.2265 4.42787C60.2265 4.42787 60.5393 4.15915 61.2317 4.35558L61.6037 4.13109C61.6037 4.13109 61.0576 4.01288 60.7312 4.0554C60.7312 4.0554 61.0753 3.86917 61.7128 4.07156L61.9791 3.95081C61.9791 3.95081 61.5783 3.87172 61.4617 3.85982C61.345 3.84791 61.3374 3.81475 61.3374 3.81475C61.5912 3.77228 61.8517 3.80173 62.0898 3.89979C62.0898 3.89979 62.6571 3.69229 62.6478 3.65658Z" fill="url(#paint38_linear_705_451)"/>
<path opacity="0.1" d="M90.7232 62.0779C91.9806 62.0779 92.9999 61.9047 92.9999 61.691C92.9999 61.4773 91.9806 61.3041 90.7232 61.3041C89.4657 61.3041 88.4464 61.4773 88.4464 61.691C88.4464 61.9047 89.4657 62.0779 90.7232 62.0779Z" fill="url(#paint39_linear_705_451)"/>
<path opacity="0.1" d="M3.95414 68.5144C5.21156 68.5144 6.2309 68.3412 6.2309 68.1275C6.2309 67.9138 5.21156 67.7406 3.95414 67.7406C2.69671 67.7406 1.67737 67.9138 1.67737 68.1275C1.67737 68.3412 2.69671 68.5144 3.95414 68.5144Z" fill="url(#paint40_linear_705_451)"/>
<path opacity="0.1" d="M17.1708 69C18.4282 69 19.4476 68.8268 19.4476 68.6131C19.4476 68.3994 18.4282 68.2262 17.1708 68.2262C15.9134 68.2262 14.894 68.3994 14.894 68.6131C14.894 68.8268 15.9134 69 17.1708 69Z" fill="url(#paint41_linear_705_451)"/>
<path d="M85.7402 66.4158C87.6177 66.4158 89.1397 66.1569 89.1397 65.8375C89.1397 65.5182 87.6177 65.2593 85.7402 65.2593C83.8627 65.2593 82.3407 65.5182 82.3407 65.8375C82.3407 66.1569 83.8627 66.4158 85.7402 66.4158Z" fill="url(#paint42_linear_705_451)"/>
<path d="M87.1453 64.8927C87.3005 64.7653 87.4136 64.5937 87.4699 64.4003C87.5114 64.2056 87.4285 63.9709 87.2434 63.8995C87.0354 63.8195 86.813 63.965 86.6448 64.1112C86.4765 64.2575 86.2829 64.4242 86.0623 64.3935C86.1758 64.2902 86.2607 64.159 86.3087 64.0128C86.3567 63.8666 86.3662 63.7103 86.3362 63.5593C86.3266 63.4968 86.3003 63.438 86.2601 63.3893C86.1443 63.2651 85.9355 63.3178 85.7968 63.4156C85.3572 63.7269 85.2346 64.3272 85.2321 64.8681C85.1881 64.6733 85.2253 64.4701 85.2245 64.2728C85.2236 64.0755 85.1687 63.8476 85.0013 63.743C84.8974 63.6872 84.7808 63.6597 84.6631 63.6631C84.4652 63.6554 84.2454 63.675 84.1102 63.8204C83.9411 64.0015 83.9859 64.3043 84.1321 64.5007C84.2784 64.6971 84.4999 64.8247 84.7037 64.9616C84.8676 65.0596 85.0075 65.1936 85.1129 65.3536C85.1252 65.3761 85.1354 65.3998 85.1433 65.4242H86.3819C86.659 65.2825 86.9158 65.1037 87.1453 64.8927Z" fill="url(#paint43_linear_705_451)"/>
<path d="M5.01687 57.7623C5.01687 57.7623 5.48102 58.3729 4.80213 59.293C4.12324 60.2131 3.56356 60.9937 3.7876 61.5686C3.7876 61.5686 4.81143 59.8559 5.64757 59.8313C6.48371 59.8066 5.93333 58.7921 5.01687 57.7623Z" fill="url(#paint44_linear_705_451)"/>
<path opacity="0.1" d="M5.01687 57.7623C5.05717 57.8213 5.08904 57.8857 5.11156 57.9537C5.92487 58.9146 6.35773 59.8117 5.57655 59.8338C4.84778 59.8551 3.97021 61.1647 3.76477 61.4955C3.77195 61.5211 3.78042 61.5464 3.79013 61.5711C3.79013 61.5711 4.81396 59.8585 5.6501 59.8338C6.48624 59.8092 5.93332 58.7921 5.01687 57.7623Z" fill="url(#paint45_linear_705_451)"/>
<path d="M5.88008 58.5404C5.88008 58.7555 5.85556 58.9299 5.82597 58.9299C5.79638 58.9299 5.77271 58.7598 5.77271 58.5404C5.77271 58.321 5.8023 58.4265 5.83273 58.4265C5.86317 58.4265 5.88008 58.3253 5.88008 58.5404Z" fill="#FFD037"/>
<path d="M6.17251 58.7973C5.98482 58.9002 5.82165 58.9623 5.80728 58.9359C5.79291 58.9095 5.9341 58.8058 6.12178 58.7029C6.30947 58.6 6.23507 58.6748 6.24945 58.7029C6.26382 58.731 6.36358 58.6944 6.17251 58.7973Z" fill="#FFD037"/>
<path d="M2.56337 57.7623C2.56337 57.7623 2.09922 58.3729 2.77726 59.293C3.45531 60.2131 4.01583 60.9937 3.79179 61.5686C3.79179 61.5686 2.76712 59.8559 1.93183 59.8313C1.09653 59.8066 1.64607 58.7921 2.56337 57.7623Z" fill="url(#paint46_linear_705_451)"/>
<path opacity="0.1" d="M2.56337 57.7623C2.5227 57.8211 2.4908 57.8856 2.46868 57.9537C1.65537 58.9146 1.22166 59.8117 2.00369 59.8338C2.73162 59.8551 3.61003 61.1647 3.81462 61.4955C3.80773 61.5211 3.79954 61.5464 3.79011 61.5711C3.79011 61.5711 2.76543 59.8585 1.93014 59.8338C1.09485 59.8092 1.64607 58.7921 2.56337 57.7623Z" fill="url(#paint47_linear_705_451)"/>
<path d="M1.7002 58.5404C1.7002 58.7555 1.72387 58.9299 1.75346 58.9299C1.78305 58.9299 1.80672 58.7598 1.80672 58.5404C1.80672 58.321 1.77713 58.4265 1.74754 58.4265C1.71795 58.4265 1.7002 58.3253 1.7002 58.5404Z" fill="#FFD037"/>
<path d="M1.40339 58.7973C1.59108 58.9002 1.75509 58.9623 1.76947 58.9359C1.78384 58.9095 1.64265 58.8058 1.45496 58.7029C1.26728 58.6 1.34083 58.6748 1.3273 58.7029C1.31377 58.731 1.2157 58.6944 1.40339 58.7973Z" fill="#FFD037"/>
<path d="M1.84814 61.4913C1.84814 61.4913 3.14674 61.4513 3.53902 61.1707C3.93131 60.89 5.5368 60.5559 5.63402 61.0006C5.73125 61.4453 7.58529 63.2371 6.1193 63.249C4.65331 63.2609 2.71303 63.0185 2.32244 62.7796C1.93184 62.5406 1.84814 61.4913 1.84814 61.4913Z" fill="#A8A8A8"/>
<path opacity="0.2" d="M6.14382 63.0967C4.67783 63.1086 2.73755 62.8663 2.34695 62.6273C2.04936 62.4453 1.931 61.7914 1.89126 61.4895H1.84814C1.84814 61.4895 1.93269 62.5431 2.32075 62.7821C2.7088 63.021 4.65162 63.2634 6.11761 63.2515C6.54033 63.2515 6.68659 63.0959 6.67898 62.8722C6.6198 63.0091 6.45917 63.0942 6.14382 63.0967Z" fill="url(#paint48_linear_705_451)"/>
<path d="M34.6046 35.2343C35.1009 35.2062 37.4369 35.0293 38.9206 34.1781C39.1589 34.0371 39.4281 33.9574 39.7043 33.946C40.1761 33.9324 40.7189 34.1305 40.3714 35.2394C39.8083 37.0532 36.539 39.0941 34.51 38.981C32.5587 38.8722 30.2439 38.0813 28.7153 35.3006C28.5689 35.0331 28.4967 34.7308 28.5065 34.4256C28.5242 33.8643 28.7271 33.1611 29.7746 33.9451C31.1899 35.0038 33.875 35.2045 34.4136 35.2343C34.4772 35.2377 34.541 35.2377 34.6046 35.2343Z" fill="#444053"/>
<path d="M53.3734 35.2343C53.8697 35.2062 56.2057 35.0293 57.6894 34.1781C57.9277 34.0371 58.1969 33.9574 58.4731 33.946C58.9449 33.9324 59.4877 34.1305 59.1402 35.2394C58.5771 37.0532 55.3078 39.0941 53.2788 38.981C51.3275 38.8722 49.0127 38.0813 47.4841 35.3006C47.3377 35.0331 47.2655 34.7308 47.2753 34.4256C47.293 33.8643 47.4959 33.1611 48.5434 33.9451C49.9587 35.0038 52.6438 35.2045 53.1824 35.2343C53.246 35.2377 53.3098 35.2377 53.3734 35.2343Z" fill="#444053"/>
</g>
<defs>
<linearGradient id="paint0_linear_705_451" x1="42.1231" y1="33.0812" x2="42.1231" y2="48.9244" gradientUnits="userSpaceOnUse">
<stop stop-color="#B0C1D8"/>
<stop offset="1" stop-color="#EDD1C7"/>
</linearGradient>
<linearGradient id="paint1_linear_705_451" x1="48.0408" y1="0.000366211" x2="48.0408" y2="10.5114" gradientUnits="userSpaceOnUse">
<stop stop-color="#B0C1D8"/>
<stop offset="1" stop-color="#EDD1C7"/>
</linearGradient>
<linearGradient id="paint2_linear_705_451" x1="44.5285" y1="21.1658" x2="44.5285" y2="33.8797" gradientUnits="userSpaceOnUse">
<stop stop-color="#B0C1D8"/>
<stop offset="1" stop-color="#EDD1C7"/>
</linearGradient>
<linearGradient id="paint3_linear_705_451" x1="46.4833" y1="10.5625" x2="46.4833" y2="21.0501" gradientUnits="userSpaceOnUse">
<stop stop-color="#B0C1D8"/>
<stop offset="1" stop-color="#EDD1C7"/>
</linearGradient>
<linearGradient id="paint4_linear_705_451" x1="46.0831" y1="59.4274" x2="46.0831" y2="66.4208" gradientUnits="userSpaceOnUse">
<stop stop-color="#B0C1D8"/>
<stop offset="1" stop-color="#EDD1C7"/>
</linearGradient>
<linearGradient id="paint5_linear_705_451" x1="75.425" y1="64.4573" x2="75.425" y2="22.4455" gradientUnits="userSpaceOnUse">
<stop stop-color="#808080" stop-opacity="0.25"/>
<stop offset="0.54" stop-color="#808080" stop-opacity="0.12"/>
<stop offset="1" stop-color="#808080" stop-opacity="0.1"/>
</linearGradient>
<linearGradient id="paint6_linear_705_451" x1="71.4797" y1="22.9346" x2="71.4797" y2="24.1642" gradientUnits="userSpaceOnUse">
<stop stop-color="#B0C1D8"/>
<stop offset="1" stop-color="#EDD1C7"/>
</linearGradient>
<linearGradient id="paint7_linear_705_451" x1="76.3968" y1="25.2604" x2="76.3968" y2="37.426" gradientUnits="userSpaceOnUse">
<stop stop-color="#B0C1D8"/>
<stop offset="1" stop-color="#EDD1C7"/>
</linearGradient>
<linearGradient id="paint8_linear_705_451" x1="83.9428" y1="34.1339" x2="83.9428" y2="34.656" gradientUnits="userSpaceOnUse">
<stop stop-color="#B0C1D8"/>
<stop offset="1" stop-color="#EDD1C7"/>
</linearGradient>
<linearGradient id="paint9_linear_705_451" x1="82.8822" y1="35.3933" x2="82.8822" y2="36.2112" gradientUnits="userSpaceOnUse">
<stop stop-color="#B0C1D8"/>
<stop offset="1" stop-color="#EDD1C7"/>
</linearGradient>
<linearGradient id="paint10_linear_705_451" x1="78.4914" y1="41.7958" x2="78.4914" y2="43.4573" gradientUnits="userSpaceOnUse">
<stop stop-color="#B0C1D8"/>
<stop offset="1" stop-color="#EDD1C7"/>
</linearGradient>
<linearGradient id="paint11_linear_705_451" x1="73.8698" y1="45.3317" x2="73.8698" y2="47.7127" gradientUnits="userSpaceOnUse">
<stop stop-color="#B0C1D8"/>
<stop offset="1" stop-color="#EDD1C7"/>
</linearGradient>
<linearGradient id="paint12_linear_705_451" x1="70.9797" y1="52.9897" x2="70.9797" y2="54.0472" gradientUnits="userSpaceOnUse">
<stop stop-color="#B0C1D8"/>
<stop offset="1" stop-color="#EDD1C7"/>
</linearGradient>
<linearGradient id="paint13_linear_705_451" x1="74.9778" y1="52.9897" x2="74.9778" y2="54.0472" gradientUnits="userSpaceOnUse">
<stop stop-color="#B0C1D8"/>
<stop offset="1" stop-color="#EDD1C7"/>
</linearGradient>
<linearGradient id="paint14_linear_705_451" x1="73.5321" y1="24.6837" x2="73.5321" y2="28.6805" gradientUnits="userSpaceOnUse">
<stop stop-color="#B0C1D8"/>
<stop offset="1" stop-color="#EDD1C7"/>
</linearGradient>
<linearGradient id="paint15_linear_705_451" x1="70.9958" y1="46.1539" x2="70.9958" y2="48.4355" gradientUnits="userSpaceOnUse">
<stop stop-color="#B0C1D8"/>
<stop offset="1" stop-color="#EDD1C7"/>
</linearGradient>
<linearGradient id="paint16_linear_705_451" x1="74.9956" y1="45.7168" x2="74.9956" y2="48.6553" gradientUnits="userSpaceOnUse">
<stop stop-color="#B0C1D8"/>
<stop offset="1" stop-color="#EDD1C7"/>
</linearGradient>
<linearGradient id="paint17_linear_705_451" x1="71.4088" y1="64.2312" x2="71.4088" y2="64.458" gradientUnits="userSpaceOnUse">
<stop stop-color="#B0C1D8"/>
<stop offset="1" stop-color="#EDD1C7"/>
</linearGradient>
<linearGradient id="paint18_linear_705_451" x1="75.4086" y1="64.2312" x2="75.4086" y2="64.458" gradientUnits="userSpaceOnUse">
<stop stop-color="#B0C1D8"/>
<stop offset="1" stop-color="#EDD1C7"/>
</linearGradient>
<linearGradient id="paint19_linear_705_451" x1="70.0152" y1="39.527" x2="70.0152" y2="48.2901" gradientUnits="userSpaceOnUse">
<stop stop-color="#B0C1D8"/>
<stop offset="1" stop-color="#EDD1C7"/>
</linearGradient>
<linearGradient id="paint20_linear_705_451" x1="71.0042" y1="38.3467" x2="71.0042" y2="39.527" gradientUnits="userSpaceOnUse">
<stop stop-color="#B0C1D8"/>
<stop offset="1" stop-color="#EDD1C7"/>
</linearGradient>
<linearGradient id="paint21_linear_705_451" x1="73.4912" y1="38.1222" x2="73.4912" y2="46.6259" gradientUnits="userSpaceOnUse">
<stop stop-color="#B0C1D8"/>
<stop offset="1" stop-color="#EDD1C7"/>
</linearGradient>
<linearGradient id="paint22_linear_705_451" x1="75.5531" y1="38.0328" x2="75.5531" y2="48.4036" gradientUnits="userSpaceOnUse">
<stop stop-color="#B0C1D8"/>
<stop offset="1" stop-color="#EDD1C7"/>
</linearGradient>
<linearGradient id="paint23_linear_705_451" x1="74.024" y1="24.1664" x2="74.024" y2="27.7334" gradientUnits="userSpaceOnUse">
<stop stop-color="#B0C1D8"/>
<stop offset="1" stop-color="#EDD1C7"/>
</linearGradient>
<linearGradient id="paint24_linear_705_451" x1="69.7306" y1="30.0955" x2="69.7306" y2="31.1101" gradientUnits="userSpaceOnUse">
<stop stop-color="#B0C1D8"/>
<stop offset="1" stop-color="#EDD1C7"/>
</linearGradient>
<linearGradient id="paint25_linear_705_451" x1="77.5312" y1="35.3356" x2="77.5312" y2="36.2471" gradientUnits="userSpaceOnUse">
<stop stop-color="#B0C1D8"/>
<stop offset="1" stop-color="#EDD1C7"/>
</linearGradient>
<linearGradient id="paint26_linear_705_451" x1="77.5616" y1="35.9594" x2="77.5616" y2="36.6434" gradientUnits="userSpaceOnUse">
<stop stop-color="#B0C1D8"/>
<stop offset="1" stop-color="#EDD1C7"/>
</linearGradient>
<linearGradient id="paint27_linear_705_451" x1="72.9465" y1="35.1433" x2="72.9465" y2="36.9291" gradientUnits="userSpaceOnUse">
<stop stop-color="#B0C1D8"/>
<stop offset="1" stop-color="#EDD1C7"/>
</linearGradient>
<linearGradient id="paint28_linear_705_451" x1="72.9465" y1="35.3134" x2="72.9465" y2="37.0991" gradientUnits="userSpaceOnUse">
<stop stop-color="#B0C1D8"/>
<stop offset="1" stop-color="#EDD1C7"/>
</linearGradient>
<linearGradient id="paint29_linear_705_451" x1="75.1461" y1="29.8939" x2="75.1461" y2="30.1813" gradientUnits="userSpaceOnUse">
<stop stop-color="#B0C1D8"/>
<stop offset="1" stop-color="#EDD1C7"/>
</linearGradient>
<linearGradient id="paint30_linear_705_451" x1="71.0592" y1="29.1686" x2="71.0592" y2="29.456" gradientUnits="userSpaceOnUse">
<stop stop-color="#B0C1D8"/>
<stop offset="1" stop-color="#EDD1C7"/>
</linearGradient>
<linearGradient id="paint31_linear_705_451" x1="75.5987" y1="32.6228" x2="75.5987" y2="34.6194" gradientUnits="userSpaceOnUse">
<stop stop-color="#B0C1D8"/>
<stop offset="1" stop-color="#EDD1C7"/>
</linearGradient>
<linearGradient id="paint32_linear_705_451" x1="70.1325" y1="32.5557" x2="70.1325" y2="34.6854" gradientUnits="userSpaceOnUse">
<stop stop-color="#B0C1D8"/>
<stop offset="1" stop-color="#EDD1C7"/>
</linearGradient>
<linearGradient id="paint33_linear_705_451" x1="69.8781" y1="29.1244" x2="69.8781" y2="29.4994" gradientUnits="userSpaceOnUse">
<stop stop-color="#B0C1D8"/>
<stop offset="1" stop-color="#EDD1C7"/>
</linearGradient>
<linearGradient id="paint34_linear_705_451" x1="74.0253" y1="25.1659" x2="74.0253" y2="27.6482" gradientUnits="userSpaceOnUse">
<stop stop-color="#B0C1D8"/>
<stop offset="1" stop-color="#EDD1C7"/>
</linearGradient>
<linearGradient id="paint35_linear_705_451" x1="43.8775" y1="12.4401" x2="43.8775" y2="64.908" gradientUnits="userSpaceOnUse">
<stop stop-color="#B0C1D8"/>
<stop offset="1" stop-color="#EDD1C7"/>
</linearGradient>
<linearGradient id="paint36_linear_705_451" x1="26.2959" y1="20.1555" x2="26.2959" y2="34.8978" gradientUnits="userSpaceOnUse">
<stop stop-color="#B0C1D8"/>
<stop offset="1" stop-color="#EDD1C7"/>
</linearGradient>
<linearGradient id="paint37_linear_705_451" x1="66.8427" y1="5.87781" x2="66.8427" y2="11.7623" gradientUnits="userSpaceOnUse">
<stop stop-color="#B0C1D8"/>
<stop offset="1" stop-color="#EDD1C7"/>
</linearGradient>
<linearGradient id="paint38_linear_705_451" x1="61.2461" y1="3.65234" x2="61.2461" y2="6.31059" gradientUnits="userSpaceOnUse">
<stop stop-color="#B0C1D8"/>
<stop offset="1" stop-color="#EDD1C7"/>
</linearGradient>
<linearGradient id="paint39_linear_705_451" x1="90.7232" y1="61.3041" x2="90.7232" y2="62.0779" gradientUnits="userSpaceOnUse">
<stop stop-color="#B0C1D8"/>
<stop offset="1" stop-color="#EDD1C7"/>
</linearGradient>
<linearGradient id="paint40_linear_705_451" x1="3.95414" y1="67.7406" x2="3.95414" y2="68.5144" gradientUnits="userSpaceOnUse">
<stop stop-color="#B0C1D8"/>
<stop offset="1" stop-color="#EDD1C7"/>
</linearGradient>
<linearGradient id="paint41_linear_705_451" x1="17.1708" y1="68.2262" x2="17.1708" y2="69" gradientUnits="userSpaceOnUse">
<stop stop-color="#B0C1D8"/>
<stop offset="1" stop-color="#EDD1C7"/>
</linearGradient>
<linearGradient id="paint42_linear_705_451" x1="85.7402" y1="65.2593" x2="85.7402" y2="66.4158" gradientUnits="userSpaceOnUse">
<stop stop-color="#B0C1D8"/>
<stop offset="1" stop-color="#EDD1C7"/>
</linearGradient>
<linearGradient id="paint43_linear_705_451" x1="85.741" y1="63.3167" x2="85.741" y2="65.4242" gradientUnits="userSpaceOnUse">
<stop stop-color="#B0C1D8"/>
<stop offset="1" stop-color="#EDD1C7"/>
</linearGradient>
<linearGradient id="paint44_linear_705_451" x1="4.89861" y1="57.7623" x2="4.89861" y2="61.5686" gradientUnits="userSpaceOnUse">
<stop stop-color="#B0C1D8"/>
<stop offset="1" stop-color="#EDD1C7"/>
</linearGradient>
<linearGradient id="paint45_linear_705_451" x1="4.91319" y1="57.7623" x2="4.91319" y2="61.5711" gradientUnits="userSpaceOnUse">
<stop stop-color="#B0C1D8"/>
<stop offset="1" stop-color="#EDD1C7"/>
</linearGradient>
<linearGradient id="paint46_linear_705_451" x1="2.68097" y1="57.7623" x2="2.68097" y2="61.5686" gradientUnits="userSpaceOnUse">
<stop stop-color="#B0C1D8"/>
<stop offset="1" stop-color="#EDD1C7"/>
</linearGradient>
<linearGradient id="paint47_linear_705_451" x1="2.66671" y1="57.7623" x2="2.66671" y2="61.5711" gradientUnits="userSpaceOnUse">
<stop stop-color="#B0C1D8"/>
<stop offset="1" stop-color="#EDD1C7"/>
</linearGradient>
<linearGradient id="paint48_linear_705_451" x1="4.2637" y1="61.4895" x2="4.2637" y2="63.2519" gradientUnits="userSpaceOnUse">
<stop stop-color="#B0C1D8"/>
<stop offset="1" stop-color="#EDD1C7"/>
</linearGradient>
<clipPath id="clip0_705_451">
<rect width="93" height="69" fill="white"/>
</clipPath>
</defs>
</svg>
